<svg width="721" height="956" viewBox="0 0 721 956" fill="none" xmlns="http://www.w3.org/2000/svg">
<path d="M134.5 50.4301C91.4942 127.323 134.5 132.5 81.1625 297.428L78.8692 307.619C76.3348 318.881 80.4872 330.599 89.5476 337.752L108.353 352.599C114.373 357.352 121.985 359.618 129.624 358.932L333.63 340.625C341.443 339.924 348.645 336.107 353.612 330.035C360.853 321.182 362.255 308.916 357.2 298.657L350.423 284.905C347.458 278.888 346.595 272.049 347.973 265.483L351.923 246.658L354.728 220.194L358 154.785L355.018 117.016C354.825 114.576 354.35 112.167 353.514 109.867C319.677 16.8585 188.655 -46.3982 134.5 50.4301Z" fill="#874100" stroke="black" stroke-width="3"/>
<path d="M44.121 611.329C44.1552 611.297 44.1898 611.264 44.2247 611.231C45.7436 609.79 47.9476 607.694 50.6899 605.068C56.1743 599.816 63.8125 592.443 72.4289 583.963C89.6524 567.01 110.819 545.595 126.5 527.823C136.035 517.016 147.331 498.78 158.871 477.654C170.434 456.486 182.319 432.273 193.021 409.41C203.724 386.544 213.253 365.01 220.106 349.194C223.533 341.285 226.291 334.804 228.193 330.3C228.77 328.933 229.269 327.747 229.683 326.759L415.313 611.408L348.343 654.544L237.57 662.989L132.034 647.557L44.121 611.329Z" fill="#852F81" stroke="black" stroke-width="4"/>
<path d="M84.8366 523.357C64.4859 513.163 35.418 473.018 81.9523 394L135.5 438C128.93 447.526 113.872 471.113 118.487 472.717C124.256 474.723 182.5 552.5 193 543L210 541C210 541 214.5 540.326 227 541.913C239.5 543.5 232.181 548.215 235.5 552.253C240.354 555.894 238.956 552.095 248.5 562.253C255.471 569.673 234.337 603.715 232.5 608C227.786 619 196 608 190 602.5C185.2 598.1 177.86 581 173.29 575L84.8366 523.357Z" fill="#F9DBBD" stroke="black" stroke-width="2"/>
<path d="M379.344 519.451C395.89 507.246 415.523 467.259 361.696 404.943L320.847 452.198C328.191 459.559 345.299 477.976 341.436 480.119C336.608 482.799 296.853 560.577 286.009 553.86L270.544 554.783C270.544 554.783 266.428 554.899 255.535 558.274C244.642 561.648 251.903 564.649 249.575 568.734C245.818 572.711 246.47 569.14 239.552 579.605C234.498 587.248 258.656 613.923 260.963 617.411C266.884 626.365 293.495 611.644 297.983 605.846C301.574 601.208 305.443 584.972 308.578 578.96L379.344 519.451Z" fill="#F9DBBD" stroke="black" stroke-width="2"/>
<g filter="url(#filter0_d_1_379)">
<path d="M267.662 260.075C288.806 263.953 330.68 295.408 369.936 399.034C373.797 409.228 371.502 420.742 364.252 428.883L281.367 521.947C270.579 534.06 252.117 535.404 239.688 524.982L88.4732 398.182C77.6838 389.135 74.6129 373.798 81.3636 361.441C103.809 320.355 138.212 262.107 155 250.692C173.757 237.937 227.402 249.399 256.545 258.022C260.16 259.092 263.954 259.395 267.662 260.075Z" fill="#852F81"/>
<path d="M267.662 260.075C288.806 263.953 330.68 295.408 369.936 399.034C373.797 409.228 371.502 420.742 364.252 428.883L281.367 521.947C270.579 534.06 252.117 535.404 239.688 524.982L88.4732 398.182C77.6838 389.135 74.6129 373.798 81.3636 361.441C103.809 320.355 138.212 262.107 155 250.692C173.757 237.937 227.402 249.399 256.545 258.022C260.16 259.092 263.954 259.395 267.662 260.075Z" stroke="black" stroke-width="3"/>
</g>
<path d="M253.435 305.255L251.975 305.545C233.392 309.238 186.105 278.006 184.13 259.163C182.908 247.507 188.575 220.788 200.271 221.539C237.772 223.948 282.517 229.942 267.743 241.598C258.691 248.739 260.333 259.675 266.058 270.44C273.016 283.522 267.968 302.367 253.435 305.255Z" fill="#F9DBBD" stroke="black" stroke-width="3"/>
<g filter="url(#filter1_d_1_379)">
<path d="M256.641 262.424C280.912 240.796 309.081 193.769 300.977 113.421C294.241 35.2185 186.575 8.53441 133.813 95.9537C95.9916 158.618 168.432 227.74 221.915 263.196C232.775 270.395 246.913 271.092 256.641 262.424Z" fill="#F9DBBD"/>
<path d="M256.641 262.424C280.912 240.796 309.081 193.769 300.977 113.421C294.241 35.2185 186.575 8.53441 133.813 95.9537C95.9916 158.618 168.432 227.74 221.915 263.196C232.775 270.395 246.913 271.092 256.641 262.424Z" stroke="black" stroke-width="3"/>
</g>
<path d="M116 151C112.752 143.152 119.002 83.577 161.728 60.5298C169.734 56.2109 176.786 49.7417 183.171 43.2621C189.558 36.7816 198.33 31.455 206.423 31.7047C215.07 31.9715 223.263 37.5027 231.915 37.5027H237.874H249.995C254.889 37.5027 259.709 38.6999 264.034 40.99L279.924 49.4042C286.368 52.8161 294.238 52.4308 301.084 54.9394C320.544 62.0701 317.066 107.873 325.51 135.898C335.297 168.377 313.499 200.857 307.271 191.304C301.043 181.751 300.598 150.705 277.466 141.152C254.334 131.599 204.065 64.1097 205.4 77.4837C206.735 90.8578 176.484 169.191 170.256 180.655C164.028 192.118 177.374 233.815 140.896 217.097C116.997 206.145 119.559 159.598 116 151Z" fill="#874100" stroke="#874100"/>
<path d="M162 222C171 209.5 168 195 169.5 189.5L170.28 185.341C170.758 182.791 171.565 180.314 172.68 177.972L176 171L188.5 138.5L200 106L204.5 90L206.426 78.0596C206.631 76.7897 208.287 76.4298 209 77.5V77.5L210.506 79.3825C212.161 81.4509 214.093 83.2809 216.249 84.8206V84.8206C218.734 86.5956 220.92 88.7549 222.726 91.2175L223.961 92.9015C224.985 94.2979 226.128 95.603 227.377 96.8022L238 107L248 118.5L260 129.5L264.448 133.686C267.127 136.207 270.246 138.214 273.65 139.607L276.952 140.958C278.647 141.651 280.275 142.498 281.816 143.489L282.554 143.963C285.168 145.644 287.503 147.725 289.471 150.131V150.131C290.489 151.375 291.404 152.7 292.207 154.092L295.988 160.645C297.651 163.528 298.823 166.668 299.455 169.936L301.5 180.5" stroke="black" stroke-width="2"/>
<g style="mix-blend-mode:plus-lighter" filter="url(#filter2_d_1_379)">
<path d="M57 691.5V657L445 598L623.5 637V672.5L155.5 731.5L57 691.5Z" fill="#FEDEDE"/>
<path d="M173 696.397L637.145 636.455L641.5 670.175L177.355 730.117L173 696.397Z" fill="#524C4C"/>
</g>
<g filter="url(#filter3_b_1_379)">
<path d="M190.887 411.8C189.292 389.766 205.862 370.612 227.896 369.018L644.34 338.887C666.374 337.292 685.528 353.862 687.122 375.896L705.183 625.509C706.777 647.543 690.207 666.697 668.174 668.292L251.729 698.423C229.696 700.017 210.541 683.448 208.947 661.414L190.887 411.8Z" fill="#9995DB" fill-opacity="0.58"/>
<path d="M643.799 331.406L227.354 361.538C201.189 363.431 181.513 386.176 183.406 412.341L201.467 661.955C203.36 688.12 226.106 707.797 252.271 705.903L668.715 675.772C694.88 673.879 714.556 651.133 712.663 624.968L694.603 375.354C692.709 349.189 669.964 329.513 643.799 331.406Z" stroke="#110034" stroke-opacity="0.87" stroke-width="15"/>
</g>
<g style="mix-blend-mode:plus-darker" filter="url(#filter4_d_1_379)">
<path d="M495.21 765.223L495.322 765.232L495.433 765.216C541.798 758.575 584.414 762.488 615.412 770.459C630.916 774.445 643.474 779.437 652.131 784.604C656.461 787.188 662.066 786.278 664.289 788.793C666.52 791.317 665.289 797.18 665.289 799.266C665.289 801.339 664.268 803.465 662.103 805.633C659.934 807.804 656.684 809.945 652.41 812.015C643.867 816.152 631.439 819.906 616.001 823.068C585.141 829.389 542.462 833.306 495.289 833.306C448.116 833.306 405.437 829.389 374.577 823.068C359.139 819.906 346.711 816.152 338.168 812.015C333.894 809.945 330.644 807.804 328.475 805.633C326.31 803.465 325.289 801.339 325.289 799.266C325.289 797.18 324.621 790.157 326.789 787.793C328.954 785.432 333.887 787.807 338.138 785.452C346.636 780.745 359.008 776.304 374.396 772.684C405.16 765.446 447.805 761.531 495.21 765.223Z" fill="#9A9A9A" stroke="black" stroke-width="2"/>
<g style="mix-blend-mode:plus-lighter" filter="url(#filter5_d_1_379)">
<path d="M666.289 791.793C666.289 811.399 589.73 827.293 495.289 827.293C400.848 827.293 324.289 811.399 324.289 791.793C324.289 772.187 400.289 748.793 495.289 756.293C588.289 742.793 666.289 772.187 666.289 791.793Z" fill="#B4B4B4"/>
<path d="M495.21 757.29L495.322 757.299L495.433 757.283C541.798 750.552 584.414 754.517 615.412 762.596C630.916 766.637 643.474 771.696 652.131 776.932C656.461 779.551 659.779 782.193 662.002 784.742C664.233 787.3 665.289 789.678 665.289 791.793C665.289 793.894 664.268 796.049 662.103 798.246C659.934 800.446 656.684 802.616 652.41 804.714C643.867 808.907 631.439 812.711 616.001 815.916C585.141 822.323 542.462 826.293 495.289 826.293C448.116 826.293 405.437 822.323 374.577 815.916C359.139 812.711 346.711 808.907 338.168 804.714C333.894 802.616 330.644 800.446 328.475 798.246C326.31 796.049 325.289 793.894 325.289 791.793C325.289 789.678 326.314 787.397 328.482 785.002C330.647 782.609 333.887 780.179 338.138 777.792C346.637 773.021 359.008 768.52 374.396 764.851C405.16 757.516 447.805 753.547 495.21 757.29Z" stroke="black" stroke-width="2"/>
</g>
</g>
<path d="M250.103 437.588C248.693 420.021 261.94 404.656 279.693 403.269L615.221 377.064C632.974 375.678 648.508 388.795 649.918 406.362L665.897 605.375C667.307 622.943 654.059 638.308 636.307 639.695L300.779 665.899C283.026 667.286 267.492 654.169 266.081 636.602L250.103 437.588Z" fill="#5B39AC" fill-opacity="0.67"/>
<path d="M608.696 372.098L288.688 395.654C268.582 397.134 253.462 414.916 254.917 435.371L268.795 630.509C270.25 650.964 287.729 666.346 307.835 664.866L627.842 641.311C647.948 639.831 663.067 622.049 661.613 601.594L647.735 406.456C646.28 386.001 628.802 370.618 608.696 372.098Z" fill="#5B39AC" fill-opacity="0.67"/>
<path d="M250.103 437.588C248.693 420.021 261.94 404.656 279.693 403.269L615.221 377.064C632.974 375.678 648.508 388.795 649.918 406.362L665.897 605.375C667.307 622.943 654.059 638.308 636.307 639.695L300.779 665.899C283.026 667.286 267.492 654.169 266.081 636.602L250.103 437.588Z" stroke="#110034" stroke-opacity="0.87" stroke-width="15"/>
<path d="M608.696 372.098L288.688 395.654C268.582 397.134 253.462 414.916 254.917 435.371L268.795 630.509C270.25 650.964 287.729 666.346 307.835 664.866L627.842 641.311C647.948 639.831 663.067 622.049 661.613 601.594L647.735 406.456C646.28 386.001 628.802 370.618 608.696 372.098Z" stroke="#110034" stroke-opacity="0.87" stroke-width="15"/>
<g style="mix-blend-mode:multiply" filter="url(#filter6_d_1_379)">
<path d="M462.37 639.193C460.98 620.67 474.87 604.527 493.394 603.137V603.137C511.86 601.751 527.973 615.554 529.439 634.014L533.505 685.212L533.365 730.366C533.352 734.52 533.77 738.663 534.613 742.73L539.956 768.509C540.134 769.363 540.234 770.232 540.257 771.104V771.104C540.465 778.948 534.479 785.574 526.654 786.161L475.669 789.987C474.357 790.085 473.038 790.033 471.738 789.831V789.831C462.508 788.396 456.107 779.863 457.312 770.6L465.981 703.993C466.508 699.938 466.62 695.839 466.314 691.761L462.37 639.193Z" fill="#9A9A9A"/>
<path d="M526.467 783.668L475.482 787.494C474.361 787.578 473.233 787.533 472.122 787.36C464.233 786.134 458.761 778.84 459.791 770.923L468.46 704.316C469.009 700.091 469.126 695.822 468.807 691.574L464.863 639.006C463.577 621.859 476.434 606.916 493.581 605.63C510.675 604.347 525.59 617.124 526.947 634.212L531.005 685.307L530.865 730.358C530.851 734.685 531.287 739.001 532.165 743.238L537.509 769.016C537.656 769.725 537.739 770.446 537.758 771.17C537.931 777.681 532.962 783.181 526.467 783.668Z" stroke="black" stroke-width="5"/>
</g>
<g style="mix-blend-mode:plus-lighter" filter="url(#filter7_d_1_379)">
<ellipse cx="88.2807" cy="812.5" rx="80" ry="50.5" transform="rotate(53.3319 88.2807 812.5)" fill="#B5B5B5"/>
<path d="M134.861 875.064C124.42 882.838 109.739 883.342 94.1389 877.332C78.5673 871.333 62.3807 858.927 49.3785 841.463C36.3762 823.999 29.1329 804.935 27.8509 788.297C26.5666 771.629 31.2602 757.709 41.7008 749.935C52.1414 742.162 66.8228 741.658 82.4226 747.668C97.9941 753.667 114.181 766.073 127.183 783.537C140.185 801.001 147.429 820.065 148.711 836.703C149.995 853.371 145.301 867.291 134.861 875.064Z" stroke="black" stroke-opacity="0.19" stroke-width="4"/>
</g>
<path d="M112.281 806C139.281 847 120.781 878.5 112.281 880.5" stroke="#524C4C" stroke-opacity="0.42" stroke-width="5"/>
<path d="M110.781 879C162.781 979.8 265.781 957 310.281 932.5C399.447 894.833 575.281 833.8 565.281 891C552.781 962.5 605.781 951 692.781 932.5" stroke="#666666" stroke-width="5"/>
<defs>
<filter id="filter0_d_1_379" x="72.2928" y="243.5" width="304.999" height="297.995" filterUnits="userSpaceOnUse" color-interpolation-filters="sRGB">
<feFlood flood-opacity="0" result="BackgroundImageFix"/>
<feColorMatrix in="SourceAlpha" type="matrix" values="0 0 0 0 0 0 0 0 0 0 0 0 0 0 0 0 0 0 127 0" result="hardAlpha"/>
<feOffset dy="4"/>
<feGaussianBlur stdDeviation="2"/>
<feComposite in2="hardAlpha" operator="out"/>
<feColorMatrix type="matrix" values="0 0 0 0 0 0 0 0 0 0 0 0 0 0 0 0 0 0 0.25 0"/>
<feBlend mode="normal" in2="BackgroundImageFix" result="effect1_dropShadow_1_379"/>
<feBlend mode="normal" in="SourceGraphic" in2="effect1_dropShadow_1_379" result="shape"/>
</filter>
<filter id="filter1_d_1_379" x="117.804" y="39.9932" width="190.093" height="252.267" filterUnits="userSpaceOnUse" color-interpolation-filters="sRGB">
<feFlood flood-opacity="0" result="BackgroundImageFix"/>
<feColorMatrix in="SourceAlpha" type="matrix" values="0 0 0 0 0 0 0 0 0 0 0 0 0 0 0 0 0 0 127 0" result="hardAlpha"/>
<feOffset dy="18"/>
<feGaussianBlur stdDeviation="2"/>
<feComposite in2="hardAlpha" operator="out"/>
<feColorMatrix type="matrix" values="0 0 0 0 0 0 0 0 0 0 0 0 0 0 0 0 0 0 0.25 0"/>
<feBlend mode="normal" in2="BackgroundImageFix" result="effect1_dropShadow_1_379"/>
<feBlend mode="normal" in="SourceGraphic" in2="effect1_dropShadow_1_379" result="shape"/>
</filter>
<filter id="filter2_d_1_379" x="53" y="598" width="592.5" height="141.5" filterUnits="userSpaceOnUse" color-interpolation-filters="sRGB">
<feFlood flood-opacity="0" result="BackgroundImageFix"/>
<feColorMatrix in="SourceAlpha" type="matrix" values="0 0 0 0 0 0 0 0 0 0 0 0 0 0 0 0 0 0 127 0" result="hardAlpha"/>
<feOffset dy="4"/>
<feGaussianBlur stdDeviation="2"/>
<feComposite in2="hardAlpha" operator="out"/>
<feColorMatrix type="matrix" values="0 0 0 0 0 0 0 0 0 0 0 0 0 0 0 0 0 0 0.25 0"/>
<feBlend mode="normal" in2="BackgroundImageFix" result="effect1_dropShadow_1_379"/>
<feBlend mode="normal" in="SourceGraphic" in2="effect1_dropShadow_1_379" result="shape"/>
</filter>
<filter id="filter3_b_1_379" x="142.78" y="290.78" width="610.509" height="455.75" filterUnits="userSpaceOnUse" color-interpolation-filters="sRGB">
<feFlood flood-opacity="0" result="BackgroundImageFix"/>
<feGaussianBlur in="BackgroundImageFix" stdDeviation="16.5"/>
<feComposite in2="SourceAlpha" operator="in" result="effect1_backgroundBlur_1_379"/>
<feBlend mode="normal" in="SourceGraphic" in2="effect1_backgroundBlur_1_379" result="shape"/>
</filter>
<filter id="filter4_d_1_379" x="320.193" y="752.864" width="350.435" height="91.4425" filterUnits="userSpaceOnUse" color-interpolation-filters="sRGB">
<feFlood flood-opacity="0" result="BackgroundImageFix"/>
<feColorMatrix in="SourceAlpha" type="matrix" values="0 0 0 0 0 0 0 0 0 0 0 0 0 0 0 0 0 0 127 0" result="hardAlpha"/>
<feOffset dy="6"/>
<feGaussianBlur stdDeviation="2"/>
<feComposite in2="hardAlpha" operator="out"/>
<feColorMatrix type="matrix" values="0 0 0 0 0 0 0 0 0 0 0 0 0 0 0 0 0 0 0.25 0"/>
<feBlend mode="normal" in2="BackgroundImageFix" result="effect1_dropShadow_1_379"/>
<feBlend mode="normal" in="SourceGraphic" in2="effect1_dropShadow_1_379" result="shape"/>
</filter>
<filter id="filter5_d_1_379" x="322.289" y="752.864" width="350" height="82.4292" filterUnits="userSpaceOnUse" color-interpolation-filters="sRGB">
<feFlood flood-opacity="0" result="BackgroundImageFix"/>
<feColorMatrix in="SourceAlpha" type="matrix" values="0 0 0 0 0 0 0 0 0 0 0 0 0 0 0 0 0 0 127 0" result="hardAlpha"/>
<feOffset dx="2" dy="4"/>
<feGaussianBlur stdDeviation="2"/>
<feComposite in2="hardAlpha" operator="out"/>
<feColorMatrix type="matrix" values="0 0 0 0 0 0 0 0 0 0 0 0 0 0 0 0 0 0 0.25 0"/>
<feBlend mode="normal" in2="BackgroundImageFix" result="effect1_dropShadow_1_379"/>
<feBlend mode="normal" in="SourceGraphic" in2="effect1_dropShadow_1_379" result="shape"/>
</filter>
<filter id="filter6_d_1_379" x="447.166" y="603.041" width="103.096" height="216.994" filterUnits="userSpaceOnUse" color-interpolation-filters="sRGB">
<feFlood flood-opacity="0" result="BackgroundImageFix"/>
<feColorMatrix in="SourceAlpha" type="matrix" values="0 0 0 0 0 0 0 0 0 0 0 0 0 0 0 0 0 0 127 0" result="hardAlpha"/>
<feOffset dy="20"/>
<feGaussianBlur stdDeviation="5"/>
<feComposite in2="hardAlpha" operator="out"/>
<feColorMatrix type="matrix" values="0 0 0 0 0 0 0 0 0 0 0 0 0 0 0 0 0 0 0.25 0"/>
<feBlend mode="normal" in2="BackgroundImageFix" result="effect1_dropShadow_1_379"/>
<feBlend mode="normal" in="SourceGraphic" in2="effect1_dropShadow_1_379" result="shape"/>
</filter>
<filter id="filter7_d_1_379" x="21.6443" y="741.581" width="133.273" height="151.838" filterUnits="userSpaceOnUse" color-interpolation-filters="sRGB">
<feFlood flood-opacity="0" result="BackgroundImageFix"/>
<feColorMatrix in="SourceAlpha" type="matrix" values="0 0 0 0 0 0 0 0 0 0 0 0 0 0 0 0 0 0 127 0" result="hardAlpha"/>
<feOffset dy="6"/>
<feGaussianBlur stdDeviation="2"/>
<feComposite in2="hardAlpha" operator="out"/>
<feColorMatrix type="matrix" values="0 0 0 0 0 0 0 0 0 0 0 0 0 0 0 0 0 0 0.25 0"/>
<feBlend mode="normal" in2="BackgroundImageFix" result="effect1_dropShadow_1_379"/>
<feBlend mode="normal" in="SourceGraphic" in2="effect1_dropShadow_1_379" result="shape"/>
</filter>
</defs>
</svg>
