<svg width="1302" height="991" viewBox="0 0 1302 991" fill="none" xmlns="http://www.w3.org/2000/svg">
<g id="homeImage">
<g id="background">
<path d="M1288.95 464.549C1288.95 507.267 1279.82 548.535 1262.82 587.5C1184.97 765.884 942.066 896 654.475 896C304.064 896 20 702.833 20 464.549C20 226.264 304.064 33.097 654.475 33.097C673.361 32.8279 692.047 33.1206 710.5 33.9526C734.416 35.0309 757.939 37.0152 781 39.8569C1057.01 73.8686 1266.64 230.701 1287.32 427C1288.63 439.366 1289.18 451.89 1288.95 464.549Z" fill="#9995DB"/>
<path d="M1288.95 464.549C1288.95 507.267 1279.82 548.535 1262.82 587.5C1184.97 765.884 942.066 896 654.475 896C304.064 896 20 702.833 20 464.549C20 226.264 304.064 33.097 654.475 33.097C673.361 32.8279 692.047 33.1206 710.5 33.9526C734.416 35.0309 757.939 37.0152 781 39.8569C1057.01 73.8686 1266.64 230.701 1287.32 427C1288.63 439.366 1289.18 451.89 1288.95 464.549Z" fill="#9995DB"/>
<path d="M1288.95 464.549C1288.95 507.267 1279.82 548.535 1262.82 587.5C1184.97 765.884 942.066 896 654.475 896C304.064 896 20 702.833 20 464.549C20 226.264 304.064 33.097 654.475 33.097C673.361 32.8279 692.047 33.1206 710.5 33.9526C734.416 35.0309 757.939 37.0152 781 39.8569C1057.01 73.8686 1266.64 230.701 1287.32 427C1288.63 439.366 1289.18 451.89 1288.95 464.549Z" fill="#9995DB"/>
<path d="M1288.95 464.549C1288.95 507.267 1279.82 548.535 1262.82 587.5C1184.97 765.884 942.066 896 654.475 896C304.064 896 20 702.833 20 464.549C20 226.264 304.064 33.097 654.475 33.097C673.361 32.8279 692.047 33.1206 710.5 33.9526C734.416 35.0309 757.939 37.0152 781 39.8569C1057.01 73.8686 1266.64 230.701 1287.32 427C1288.63 439.366 1289.18 451.89 1288.95 464.549Z" fill="#9995DB"/>
<path d="M1288.95 464.549C1041.17 296.056 902.253 201.589 654.475 33.097M1288.95 464.549C1289.18 451.89 1288.63 439.366 1287.32 427C1266.64 230.701 1057.01 73.8686 781 39.8569C757.939 37.0152 734.416 35.0309 710.5 33.9526M1288.95 464.549C1288.95 507.267 1279.82 548.535 1262.82 587.5M654.475 33.097C304.064 33.097 20 226.264 20 464.549C20 702.833 304.064 896 654.475 896C942.066 896 1184.97 765.884 1262.82 587.5M654.475 33.097C673.361 32.8279 692.047 33.1206 710.5 33.9526M710.5 33.9526L1262.82 587.5" stroke="#343434" stroke-width="12"/>
</g>
<g id="person">
<path id="hairBack" d="M413.5 66.4301C370.494 143.323 413.5 148.5 360.163 313.428L357.869 323.619C355.335 334.881 359.487 346.599 368.548 353.752L387.353 368.599C393.373 373.352 400.985 375.618 408.624 374.932L612.63 356.625C620.443 355.924 627.645 352.107 632.612 346.035C639.853 337.182 641.255 324.916 636.2 314.657L629.423 300.905C626.458 294.888 625.595 288.049 626.973 281.483L630.923 262.658L633.728 236.194L637 170.785L634.018 133.016C633.825 130.576 633.35 128.167 632.514 125.867C598.677 32.8585 467.655 -30.3982 413.5 66.4301Z" fill="#874100" stroke="black" stroke-width="3"/>
<path id="chestLower" d="M323.121 627.329C323.155 627.297 323.19 627.264 323.225 627.231C324.744 625.79 326.948 623.694 329.69 621.068C335.174 615.816 342.813 608.443 351.429 599.963C368.652 583.01 389.819 561.595 405.5 543.823C415.035 533.016 426.331 514.78 437.871 493.654C449.434 472.486 461.319 448.273 472.021 425.41C482.724 402.544 492.253 381.01 499.106 365.194C502.533 357.285 505.291 350.804 507.193 346.3C507.77 344.933 508.269 343.747 508.683 342.759L694.313 627.408L627.343 670.544L516.57 678.989L411.034 663.557L323.121 627.329Z" fill="#852F81" stroke="black" stroke-width="4"/>
<g id="arms">
<path id="arm-left" d="M363.837 539.357C343.486 529.163 314.418 489.018 360.952 410L414.5 454C407.93 463.526 392.872 487.113 397.487 488.717C403.256 490.723 461.5 568.5 472 559L489 557C489 557 493.5 556.326 506 557.913C518.5 559.5 511.181 564.215 514.5 568.253C519.354 571.894 517.956 568.095 527.5 578.253C534.471 585.673 513.337 619.715 511.5 624C506.786 635 475 624 469 618.5C464.2 614.1 456.86 597 452.29 591L363.837 539.357Z" fill="#F9DBBD" stroke="black" stroke-width="2"/>
<path id="arm-right" d="M658.344 535.451C674.89 523.246 694.523 483.259 640.696 420.943L599.847 468.198C607.191 475.559 624.299 493.976 620.436 496.119C615.608 498.799 575.853 576.577 565.009 569.86L549.544 570.783C549.544 570.783 545.428 570.899 534.535 574.274C523.642 577.648 530.903 580.649 528.575 584.734C524.818 588.711 525.47 585.14 518.552 595.605C513.498 603.248 537.656 629.923 539.963 633.411C545.884 642.365 572.495 627.644 576.983 621.846C580.574 617.208 584.443 600.972 587.578 594.96L658.344 535.451Z" fill="#F9DBBD" stroke="black" stroke-width="2"/>
</g>
<g id="chestBase" filter="url(#filter0_d_1_379)">
<path d="M546.662 276.075C567.806 279.953 609.68 311.408 648.936 415.034C652.797 425.228 650.502 436.742 643.252 444.883L560.367 537.947C549.579 550.06 531.117 551.404 518.688 540.982L367.473 414.182C356.684 405.135 353.613 389.798 360.364 377.441C382.809 336.355 417.212 278.107 434 266.692C452.757 253.937 506.402 265.399 535.545 274.022C539.16 275.092 542.954 275.395 546.662 276.075Z" fill="#852F81"/>
<path d="M546.662 276.075C567.806 279.953 609.68 311.408 648.936 415.034C652.797 425.228 650.502 436.742 643.252 444.883L560.367 537.947C549.579 550.06 531.117 551.404 518.688 540.982L367.473 414.182C356.684 405.135 353.613 389.798 360.364 377.441C382.809 336.355 417.212 278.107 434 266.692C452.757 253.937 506.402 265.399 535.545 274.022C539.16 275.092 542.954 275.395 546.662 276.075Z" stroke="black" stroke-width="3"/>
</g>
<g id="skin">
<path id="neck" d="M532.435 321.255L530.975 321.545C512.392 325.238 465.105 294.006 463.13 275.163C461.908 263.507 467.575 236.788 479.271 237.539C516.772 239.948 561.517 245.942 546.743 257.598C537.691 264.739 539.333 275.675 545.058 286.44C552.016 299.522 546.968 318.367 532.435 321.255Z" fill="#F9DBBD" stroke="black" stroke-width="3"/>
<g id="face" filter="url(#filter1_d_1_379)">
<path d="M535.641 278.424C559.912 256.796 588.081 209.769 579.977 129.421C573.241 51.2185 465.575 24.5344 412.813 111.954C374.992 174.618 447.432 243.74 500.915 279.196C511.775 286.395 525.913 287.092 535.641 278.424Z" fill="#F9DBBD"/>
<path d="M535.641 278.424C559.912 256.796 588.081 209.769 579.977 129.421C573.241 51.2185 465.575 24.5344 412.813 111.954C374.992 174.618 447.432 243.74 500.915 279.196C511.775 286.395 525.913 287.092 535.641 278.424Z" stroke="black" stroke-width="3"/>
</g>
</g>
<path id="hairFront" d="M395 167C391.752 159.152 398.002 99.577 440.728 76.5298C448.734 72.2109 455.786 65.7417 462.171 59.2621C468.558 52.7816 477.33 47.455 485.423 47.7047C494.07 47.9715 502.263 53.5027 510.915 53.5027H516.874H528.995C533.889 53.5027 538.709 54.6999 543.034 56.99L558.924 65.4042C565.368 68.8161 573.238 68.4308 580.084 70.9394C599.544 78.0701 596.066 123.873 604.51 151.898C614.297 184.377 592.499 216.857 586.271 207.304C580.043 197.751 579.598 166.705 556.466 157.152C533.334 147.599 483.065 80.1097 484.4 93.4837C485.735 106.858 455.484 185.191 449.256 196.655C443.028 208.118 456.374 249.815 419.896 233.097C395.997 222.145 398.559 175.598 395 167Z" fill="#874100" stroke="#874100"/>
<path id="hairOutline" d="M441 238C450 225.5 447 211 448.5 205.5L449.28 201.341C449.758 198.791 450.565 196.314 451.68 193.972L455 187L467.5 154.5L479 122L483.5 106L485.426 94.0596C485.631 92.7897 487.287 92.4298 488 93.5V93.5L489.506 95.3825C491.161 97.4509 493.093 99.2809 495.249 100.821V100.821C497.734 102.596 499.92 104.755 501.726 107.217L502.961 108.902C503.985 110.298 505.128 111.603 506.377 112.802L517 123L527 134.5L539 145.5L543.448 149.686C546.127 152.207 549.246 154.214 552.65 155.607L555.952 156.958C557.647 157.651 559.275 158.498 560.816 159.489L561.554 159.963C564.168 161.644 566.503 163.725 568.471 166.131V166.131C569.489 167.375 570.404 168.7 571.207 170.092L574.988 176.645C576.651 179.528 577.823 182.668 578.455 185.936L580.5 196.5" stroke="black" stroke-width="2"/>
</g>
<g id="keyboard" style="mix-blend-mode:plus-lighter" filter="url(#filter2_d_1_379)">
<path d="M336 707.5V673L724 614L902.5 653V688.5L434.5 747.5L336 707.5Z" fill="#FEDEDE"/>
<path d="M452 712.397L916.145 652.455L920.5 686.175L456.355 746.117L452 712.397Z" fill="#524C4C"/>
</g>
<g id="computer">
<g id="computerScreen" filter="url(#filter3_b_1_379)">
<path d="M469.887 427.8C468.292 405.766 484.862 386.612 506.896 385.018L923.34 354.887C945.374 353.292 964.528 369.862 966.122 391.896L984.183 641.509C985.777 663.543 969.207 682.697 947.174 684.292L530.729 714.423C508.696 716.017 489.541 699.448 487.947 677.414L469.887 427.8Z" fill="#9995DB" fill-opacity="0.58"/>
<path d="M922.799 347.406L506.354 377.538C480.189 379.431 460.513 402.176 462.406 428.341L480.467 677.955C482.36 704.12 505.106 723.797 531.271 721.903L947.715 691.772C973.88 689.879 993.556 667.133 991.663 640.968L973.603 391.354C971.709 365.189 948.964 345.513 922.799 347.406Z" stroke="#110034" stroke-opacity="0.87" stroke-width="15"/>
</g>
<g id="screenBase" style="mix-blend-mode:plus-darker" filter="url(#filter4_d_1_379)">
<path id="screenBaseDepth" d="M774.21 781.223L774.322 781.232L774.433 781.216C820.798 774.575 863.414 778.488 894.412 786.459C909.916 790.445 922.474 795.437 931.131 800.604C935.461 803.188 941.066 802.278 943.289 804.793C945.52 807.317 944.289 813.18 944.289 815.266C944.289 817.339 943.268 819.465 941.103 821.633C938.934 823.804 935.684 825.945 931.41 828.015C922.867 832.152 910.439 835.906 895.001 839.068C864.141 845.389 821.462 849.306 774.289 849.306C727.116 849.306 684.437 845.389 653.577 839.068C638.139 835.906 625.711 832.152 617.168 828.015C612.894 825.945 609.644 823.804 607.475 821.633C605.31 819.465 604.289 817.339 604.289 815.266C604.289 813.18 603.621 806.157 605.789 803.793C607.954 801.432 612.887 803.807 617.138 801.452C625.636 796.745 638.008 792.304 653.396 788.684C684.16 781.446 726.805 777.531 774.21 781.223Z" fill="#9A9A9A" stroke="black" stroke-width="2"/>
<g id="screenBase_2" style="mix-blend-mode:plus-lighter" filter="url(#filter5_d_1_379)">
<path d="M945.289 807.793C945.289 827.399 868.73 843.293 774.289 843.293C679.848 843.293 603.289 827.399 603.289 807.793C603.289 788.187 679.289 764.793 774.289 772.293C867.289 758.793 945.289 788.187 945.289 807.793Z" fill="#B4B4B4"/>
<path d="M774.21 773.29L774.322 773.299L774.433 773.283C820.798 766.552 863.414 770.517 894.412 778.596C909.916 782.637 922.474 787.696 931.131 792.932C935.461 795.551 938.779 798.193 941.002 800.742C943.233 803.3 944.289 805.678 944.289 807.793C944.289 809.894 943.268 812.049 941.103 814.246C938.934 816.446 935.684 818.616 931.41 820.714C922.867 824.907 910.439 828.711 895.001 831.916C864.141 838.323 821.462 842.293 774.289 842.293C727.116 842.293 684.437 838.323 653.577 831.916C638.139 828.711 625.711 824.907 617.168 820.714C612.894 818.616 609.644 816.446 607.475 814.246C605.31 812.049 604.289 809.894 604.289 807.793C604.289 805.678 605.314 803.397 607.482 801.002C609.647 798.609 612.887 796.179 617.138 793.792C625.637 789.021 638.008 784.52 653.396 780.851C684.16 773.516 726.805 769.547 774.21 773.29Z" stroke="black" stroke-width="2"/>
</g>
</g>
<g id="screenBack">
<path d="M529.103 453.588C527.693 436.021 540.94 420.656 558.693 419.269L894.221 393.064C911.974 391.678 927.508 404.795 928.918 422.362L944.897 621.375C946.307 638.943 933.059 654.308 915.307 655.695L579.779 681.899C562.026 683.286 546.492 670.169 545.081 652.602L529.103 453.588Z" fill="#5B39AC" fill-opacity="0.67"/>
<path d="M887.696 388.098L567.688 411.654C547.582 413.134 532.462 430.916 533.917 451.371L547.795 646.509C549.25 666.964 566.729 682.346 586.835 680.866L906.842 657.311C926.948 655.831 942.067 638.049 940.613 617.594L926.735 422.456C925.28 402.001 907.802 386.618 887.696 388.098Z" fill="#5B39AC" fill-opacity="0.67"/>
<path d="M529.103 453.588C527.693 436.021 540.94 420.656 558.693 419.269L894.221 393.064C911.974 391.678 927.508 404.795 928.918 422.362L944.897 621.375C946.307 638.943 933.059 654.308 915.307 655.695L579.779 681.899C562.026 683.286 546.492 670.169 545.081 652.602L529.103 453.588Z" stroke="#110034" stroke-opacity="0.87" stroke-width="15"/>
<path d="M887.696 388.098L567.688 411.654C547.582 413.134 532.462 430.916 533.917 451.371L547.795 646.509C549.25 666.964 566.729 682.346 586.835 680.866L906.842 657.311C926.948 655.831 942.067 638.049 940.613 617.594L926.735 422.456C925.28 402.001 907.802 386.618 887.696 388.098Z" stroke="#110034" stroke-opacity="0.87" stroke-width="15"/>
</g>
<g id="screenNeck" style="mix-blend-mode:multiply" filter="url(#filter6_d_1_379)">
<path d="M741.37 655.193C739.98 636.67 753.87 620.527 772.394 619.137V619.137C790.86 617.751 806.973 631.554 808.439 650.014L812.505 701.212L812.365 746.366C812.352 750.52 812.77 754.663 813.613 758.73L818.956 784.509C819.134 785.363 819.234 786.232 819.257 787.104V787.104C819.465 794.948 813.479 801.574 805.654 802.161L754.669 805.987C753.357 806.085 752.038 806.033 750.738 805.831V805.831C741.508 804.396 735.107 795.863 736.312 786.6L744.981 719.993C745.508 715.938 745.62 711.839 745.314 707.761L741.37 655.193Z" fill="#9A9A9A"/>
<path d="M805.467 799.668L754.482 803.494C753.361 803.578 752.233 803.533 751.122 803.36C743.233 802.134 737.761 794.84 738.791 786.923L747.46 720.316C748.009 716.091 748.126 711.822 747.807 707.574L743.863 655.006C742.577 637.859 755.434 622.916 772.581 621.63C789.675 620.347 804.59 633.124 805.947 650.212L810.005 701.307L809.865 746.358C809.851 750.685 810.287 755.001 811.165 759.238L816.509 785.016C816.656 785.725 816.739 786.446 816.758 787.17C816.931 793.681 811.962 799.181 805.467 799.668Z" stroke="black" stroke-width="5"/>
</g>
<g id="mouse">
<g id="Ellipse 1" style="mix-blend-mode:plus-lighter" filter="url(#filter7_d_1_379)">
<ellipse cx="367.281" cy="828.5" rx="80" ry="50.5" transform="rotate(53.3319 367.281 828.5)" fill="#B5B5B5"/>
<path d="M413.861 891.064C403.42 898.838 388.739 899.342 373.139 893.332C357.567 887.333 341.381 874.927 328.378 857.463C315.376 839.999 308.133 820.935 306.851 804.297C305.567 787.629 310.26 773.709 320.701 765.935C331.141 758.162 345.823 757.658 361.423 763.668C376.994 769.667 393.181 782.073 406.183 799.537C419.185 817.001 426.429 836.065 427.711 852.703C428.995 869.371 424.301 883.291 413.861 891.064Z" stroke="black" stroke-opacity="0.19" stroke-width="4"/>
</g>
<path id="Vector 8" d="M391.281 822C418.281 863 399.781 894.5 391.281 896.5" stroke="#524C4C" stroke-opacity="0.42" stroke-width="5"/>
<path id="Vector 9" d="M389.781 895C441.781 995.8 544.781 973 589.281 948.5C678.447 910.833 854.281 849.8 844.281 907C831.781 978.5 884.781 967 971.781 948.5" stroke="#666666" stroke-width="5"/>
</g>
</g>
</g>
<defs>
<filter id="filter0_d_1_379" x="351.293" y="259.5" width="304.999" height="297.995" filterUnits="userSpaceOnUse" color-interpolation-filters="sRGB">
<feFlood flood-opacity="0" result="BackgroundImageFix"/>
<feColorMatrix in="SourceAlpha" type="matrix" values="0 0 0 0 0 0 0 0 0 0 0 0 0 0 0 0 0 0 127 0" result="hardAlpha"/>
<feOffset dy="4"/>
<feGaussianBlur stdDeviation="2"/>
<feComposite in2="hardAlpha" operator="out"/>
<feColorMatrix type="matrix" values="0 0 0 0 0 0 0 0 0 0 0 0 0 0 0 0 0 0 0.25 0"/>
<feBlend mode="normal" in2="BackgroundImageFix" result="effect1_dropShadow_1_379"/>
<feBlend mode="normal" in="SourceGraphic" in2="effect1_dropShadow_1_379" result="shape"/>
</filter>
<filter id="filter1_d_1_379" x="396.804" y="55.9932" width="190.093" height="252.267" filterUnits="userSpaceOnUse" color-interpolation-filters="sRGB">
<feFlood flood-opacity="0" result="BackgroundImageFix"/>
<feColorMatrix in="SourceAlpha" type="matrix" values="0 0 0 0 0 0 0 0 0 0 0 0 0 0 0 0 0 0 127 0" result="hardAlpha"/>
<feOffset dy="18"/>
<feGaussianBlur stdDeviation="2"/>
<feComposite in2="hardAlpha" operator="out"/>
<feColorMatrix type="matrix" values="0 0 0 0 0 0 0 0 0 0 0 0 0 0 0 0 0 0 0.25 0"/>
<feBlend mode="normal" in2="BackgroundImageFix" result="effect1_dropShadow_1_379"/>
<feBlend mode="normal" in="SourceGraphic" in2="effect1_dropShadow_1_379" result="shape"/>
</filter>
<filter id="filter2_d_1_379" x="332" y="614" width="592.5" height="141.5" filterUnits="userSpaceOnUse" color-interpolation-filters="sRGB">
<feFlood flood-opacity="0" result="BackgroundImageFix"/>
<feColorMatrix in="SourceAlpha" type="matrix" values="0 0 0 0 0 0 0 0 0 0 0 0 0 0 0 0 0 0 127 0" result="hardAlpha"/>
<feOffset dy="4"/>
<feGaussianBlur stdDeviation="2"/>
<feComposite in2="hardAlpha" operator="out"/>
<feColorMatrix type="matrix" values="0 0 0 0 0 0 0 0 0 0 0 0 0 0 0 0 0 0 0.25 0"/>
<feBlend mode="normal" in2="BackgroundImageFix" result="effect1_dropShadow_1_379"/>
<feBlend mode="normal" in="SourceGraphic" in2="effect1_dropShadow_1_379" result="shape"/>
</filter>
<filter id="filter3_b_1_379" x="421.78" y="306.78" width="610.509" height="455.75" filterUnits="userSpaceOnUse" color-interpolation-filters="sRGB">
<feFlood flood-opacity="0" result="BackgroundImageFix"/>
<feGaussianBlur in="BackgroundImageFix" stdDeviation="16.5"/>
<feComposite in2="SourceAlpha" operator="in" result="effect1_backgroundBlur_1_379"/>
<feBlend mode="normal" in="SourceGraphic" in2="effect1_backgroundBlur_1_379" result="shape"/>
</filter>
<filter id="filter4_d_1_379" x="599.193" y="768.864" width="350.435" height="91.4425" filterUnits="userSpaceOnUse" color-interpolation-filters="sRGB">
<feFlood flood-opacity="0" result="BackgroundImageFix"/>
<feColorMatrix in="SourceAlpha" type="matrix" values="0 0 0 0 0 0 0 0 0 0 0 0 0 0 0 0 0 0 127 0" result="hardAlpha"/>
<feOffset dy="6"/>
<feGaussianBlur stdDeviation="2"/>
<feComposite in2="hardAlpha" operator="out"/>
<feColorMatrix type="matrix" values="0 0 0 0 0 0 0 0 0 0 0 0 0 0 0 0 0 0 0.25 0"/>
<feBlend mode="normal" in2="BackgroundImageFix" result="effect1_dropShadow_1_379"/>
<feBlend mode="normal" in="SourceGraphic" in2="effect1_dropShadow_1_379" result="shape"/>
</filter>
<filter id="filter5_d_1_379" x="601.289" y="768.864" width="350" height="82.4292" filterUnits="userSpaceOnUse" color-interpolation-filters="sRGB">
<feFlood flood-opacity="0" result="BackgroundImageFix"/>
<feColorMatrix in="SourceAlpha" type="matrix" values="0 0 0 0 0 0 0 0 0 0 0 0 0 0 0 0 0 0 127 0" result="hardAlpha"/>
<feOffset dx="2" dy="4"/>
<feGaussianBlur stdDeviation="2"/>
<feComposite in2="hardAlpha" operator="out"/>
<feColorMatrix type="matrix" values="0 0 0 0 0 0 0 0 0 0 0 0 0 0 0 0 0 0 0.25 0"/>
<feBlend mode="normal" in2="BackgroundImageFix" result="effect1_dropShadow_1_379"/>
<feBlend mode="normal" in="SourceGraphic" in2="effect1_dropShadow_1_379" result="shape"/>
</filter>
<filter id="filter6_d_1_379" x="726.166" y="619.041" width="103.096" height="216.994" filterUnits="userSpaceOnUse" color-interpolation-filters="sRGB">
<feFlood flood-opacity="0" result="BackgroundImageFix"/>
<feColorMatrix in="SourceAlpha" type="matrix" values="0 0 0 0 0 0 0 0 0 0 0 0 0 0 0 0 0 0 127 0" result="hardAlpha"/>
<feOffset dy="20"/>
<feGaussianBlur stdDeviation="5"/>
<feComposite in2="hardAlpha" operator="out"/>
<feColorMatrix type="matrix" values="0 0 0 0 0 0 0 0 0 0 0 0 0 0 0 0 0 0 0.25 0"/>
<feBlend mode="normal" in2="BackgroundImageFix" result="effect1_dropShadow_1_379"/>
<feBlend mode="normal" in="SourceGraphic" in2="effect1_dropShadow_1_379" result="shape"/>
</filter>
<filter id="filter7_d_1_379" x="300.644" y="757.581" width="133.273" height="151.838" filterUnits="userSpaceOnUse" color-interpolation-filters="sRGB">
<feFlood flood-opacity="0" result="BackgroundImageFix"/>
<feColorMatrix in="SourceAlpha" type="matrix" values="0 0 0 0 0 0 0 0 0 0 0 0 0 0 0 0 0 0 127 0" result="hardAlpha"/>
<feOffset dy="6"/>
<feGaussianBlur stdDeviation="2"/>
<feComposite in2="hardAlpha" operator="out"/>
<feColorMatrix type="matrix" values="0 0 0 0 0 0 0 0 0 0 0 0 0 0 0 0 0 0 0.25 0"/>
<feBlend mode="normal" in2="BackgroundImageFix" result="effect1_dropShadow_1_379"/>
<feBlend mode="normal" in="SourceGraphic" in2="effect1_dropShadow_1_379" result="shape"/>
</filter>
</defs>
</svg>
