<svg width="1438" height="1147" viewBox="0 0 1438 1147" fill="none" xmlns="http://www.w3.org/2000/svg">
<g id="homeImage">
<path d="M42 41H1396V39H42V41ZM1397 42V1105H1399V42H1397ZM1396 1106H42V1108H1396V1106ZM41 1105V42H39V1105H41ZM42 1106C41.4477 1106 41 1105.55 41 1105H39C39 1106.66 40.3432 1108 42 1108V1106ZM1397 1105C1397 1105.55 1396.55 1106 1396 1106V1108C1397.66 1108 1399 1106.66 1399 1105H1397ZM1396 41C1396.55 41 1397 41.4477 1397 42H1399C1399 40.3431 1397.66 39 1396 39V41ZM42 39C40.3432 39 39 40.3431 39 42H41C41 41.4477 41.4477 41 42 41V39Z" fill="black" fill-opacity="0.1"/>
<g id="background">
<path id="Vector" d="M1351.95 541.549C1351.95 584.267 1342.82 625.535 1325.82 664.5C1247.97 842.884 1005.07 973 717.475 973C367.064 973 83 779.833 83 541.549C83 303.264 367.064 110.097 717.475 110.097C736.361 109.828 755.047 110.121 773.5 110.953C797.416 112.031 820.939 114.015 844 116.857C1120.01 150.869 1329.64 307.701 1350.32 504C1351.63 516.366 1352.18 528.89 1351.95 541.549Z" fill="#9995DB"/>
<path id="Vector_2" d="M1351.95 541.549C1351.95 584.267 1342.82 625.535 1325.82 664.5C1247.97 842.884 1005.07 973 717.475 973C367.064 973 83 779.833 83 541.549C83 303.264 367.064 110.097 717.475 110.097C736.361 109.828 755.047 110.121 773.5 110.953C797.416 112.031 820.939 114.015 844 116.857C1120.01 150.869 1329.64 307.701 1350.32 504C1351.63 516.366 1352.18 528.89 1351.95 541.549Z" fill="#9995DB"/>
<path id="Vector_3" d="M1351.95 541.549C1351.95 584.267 1342.82 625.535 1325.82 664.5C1247.97 842.884 1005.07 973 717.475 973C367.064 973 83 779.833 83 541.549C83 303.264 367.064 110.097 717.475 110.097C736.361 109.828 755.047 110.121 773.5 110.953C797.416 112.031 820.939 114.015 844 116.857C1120.01 150.869 1329.64 307.701 1350.32 504C1351.63 516.366 1352.18 528.89 1351.95 541.549Z" fill="#9995DB"/>
<path id="Vector_4" d="M1351.95 541.549C1351.95 584.267 1342.82 625.535 1325.82 664.5C1247.97 842.884 1005.07 973 717.475 973C367.064 973 83 779.833 83 541.549C83 303.264 367.064 110.097 717.475 110.097C736.361 109.828 755.047 110.121 773.5 110.953C797.416 112.031 820.939 114.015 844 116.857C1120.01 150.869 1329.64 307.701 1350.32 504C1351.63 516.366 1352.18 528.89 1351.95 541.549Z" fill="#9995DB"/>
<path id="Vector_5" d="M1351.95 541.549C1104.17 373.056 965.253 278.589 717.475 110.097M1351.95 541.549C1352.18 528.89 1351.63 516.366 1350.32 504C1329.64 307.701 1120.01 150.869 844 116.857C820.939 114.015 797.416 112.031 773.5 110.953M1351.95 541.549C1351.95 584.267 1342.82 625.535 1325.82 664.5M717.475 110.097C367.064 110.097 83 303.264 83 541.549C83 779.833 367.064 973 717.475 973C1005.07 973 1247.97 842.884 1325.82 664.5M717.475 110.097C736.361 109.828 755.047 110.121 773.5 110.953M773.5 110.953L1325.82 664.5" stroke="#343434" stroke-width="12"/>
</g>
<g id="person">
<path id="hairBack" d="M475.5 109.43C432.494 186.323 475.5 191.5 422.163 356.428L419.869 366.619C417.335 377.881 421.487 389.599 430.548 396.752L449.353 411.599C455.373 416.352 462.985 418.618 470.624 417.932L674.63 399.625C682.443 398.924 689.645 395.107 694.612 389.035C701.853 380.182 703.255 367.916 698.2 357.657L691.423 343.905C688.458 337.888 687.595 331.049 688.973 324.483L692.923 305.658L695.728 279.194L699 213.785L696.018 176.016C695.825 173.576 695.35 171.167 694.514 168.867C660.677 75.8585 529.655 12.6018 475.5 109.43Z" fill="#874100"/>
<path id="chestLower" d="M570.294 381.5L759.087 671L690 715.5L578.5 724L472.5 708.5L381.5 671C381.5 671 434.736 620.933 466 585.5C503.5 543 570.294 381.5 570.294 381.5Z" fill="#852F81"/>
<g id="arms">
<path id="arm-left" d="M425.837 582.357C405.486 572.163 376.418 532.018 422.952 453L476.5 497C469.93 506.526 454.872 530.113 459.487 531.717C465.256 533.723 523.5 611.5 534 602L551 600C551 600 555.5 599.326 568 600.913C580.5 602.5 573.181 607.215 576.5 611.253C581.354 614.894 579.956 611.095 589.5 621.253C596.471 628.673 575.337 662.715 573.5 667C568.786 678 537 667 531 661.5C526.2 657.1 518.86 640 514.29 634L425.837 582.357Z" fill="#F9DBBD"/>
<path id="arm-right" d="M720.344 578.451C736.89 566.246 756.523 526.259 702.696 463.943L661.847 511.198C669.191 518.559 686.299 536.976 682.436 539.119C677.608 541.799 637.853 619.577 627.009 612.86L611.544 613.783C611.544 613.783 607.428 613.899 596.535 617.274C585.642 620.648 592.903 623.649 590.575 627.734C586.818 631.711 587.47 628.14 580.552 638.605C575.498 646.248 599.656 672.923 601.963 676.411C607.884 685.365 634.495 670.644 638.983 664.846C642.574 660.208 646.443 643.972 649.578 637.96L720.344 578.451Z" fill="#F9DBBD"/>
</g>
<g id="chestBase" filter="url(#filter0_d_23_70)">
<path id="Vector_6" d="M608.662 319.075C629.806 322.953 671.68 354.408 710.936 458.034C714.797 468.228 712.502 479.742 705.252 487.883L622.367 580.947C611.579 593.06 593.117 594.404 580.688 583.982L429.473 457.182C418.684 448.135 415.613 432.798 422.364 420.441C444.809 379.355 479.212 321.107 496 309.692C514.757 296.937 568.402 308.399 597.545 317.022C601.16 318.092 604.954 318.395 608.662 319.075Z" fill="#852F81"/>
</g>
<g id="skin">
<path id="neck" d="M594.435 364.255L592.975 364.545C574.392 368.238 527.105 337.006 525.13 318.163C523.908 306.507 529.575 279.788 541.271 280.539C578.772 282.948 623.517 288.942 608.743 300.598C599.691 307.739 601.333 318.675 607.058 329.44C614.016 342.522 608.968 361.367 594.435 364.255Z" fill="#F9DBBD"/>
<g id="face" filter="url(#filter1_d_23_70)">
<path id="Vector_7" d="M597.641 321.424C621.912 299.796 650.081 252.769 641.977 172.421C635.241 94.2185 527.575 67.5344 474.813 154.954C436.992 217.618 509.432 286.74 562.915 322.196C573.775 329.395 587.913 330.092 597.641 321.424Z" fill="#F9DBBD"/>
</g>
</g>
<path id="hairFront" d="M457 210C453.752 202.152 460.002 142.577 502.728 119.53C510.734 115.211 517.786 108.742 524.171 102.262C530.558 95.7816 539.33 90.455 547.423 90.7047C556.07 90.9715 564.263 96.5027 572.915 96.5027H578.874H590.995C595.889 96.5027 600.709 97.6999 605.034 99.99L620.924 108.404C627.368 111.816 635.238 111.431 642.084 113.939C661.544 121.07 658.066 166.873 666.51 194.898C676.297 227.377 654.499 259.857 648.271 250.304C642.043 240.751 641.598 209.705 618.466 200.152C595.334 190.599 545.065 123.11 546.4 136.484C547.735 149.858 517.484 228.191 511.256 239.655C505.028 251.118 518.374 292.815 481.896 276.097C457.997 265.145 460.559 218.598 457 210Z" fill="#874100" stroke="#874100"/>
</g>
<g id="keyboard" style="mix-blend-mode:color-dodge">
<path d="M386 736.5V702L774 643L952.5 682V717.5L484.5 776.5L386 736.5Z" fill="#FEDEDE"/>
<path d="M501 748.446L952.5 682V717.5L484.5 776.5L501 748.446Z" fill="#524C4C"/>
</g>
<g id="computer">
<g id="screen" filter="url(#filter2_d_23_70)">
<path id="screenBack" d="M541.236 474.25C539.07 449.492 557.385 427.665 582.143 425.499L977.323 390.926C1002.08 388.76 1023.91 407.074 1026.07 431.832L1048.47 687.854C1050.64 712.613 1032.32 734.439 1007.57 736.605L612.386 771.179C587.628 773.345 565.802 755.03 563.635 730.272L541.236 474.25Z" fill="#5B39AC" fill-opacity="0.85"/>
<path id="screenFront" d="M578.922 494.501C576.756 469.743 595.071 447.917 619.829 445.75L949.339 416.922C974.098 414.756 995.924 433.071 998.09 457.829L1016.39 667.03C1018.56 691.788 1000.24 713.614 975.486 715.78L645.975 744.609C621.217 746.775 599.391 728.46 597.225 703.702L578.922 494.501Z" fill="#5B39AC"/>
</g>
<g id="monitorBase">
<g id="monitorBaseTop" style="mix-blend-mode:multiply">
<path id="Vector_8" d="M1006.03 846C1006.74 847 1006.7 847.5 1006.93 848.5C1017.28 893.04 712.77 898.714 670.134 859.5C663.067 853 665.5 848 667 845C672.5 838.5 678.533 835 690.233 828.692C771.63 789.093 967.146 790.576 1006.03 846Z" fill="#5B39AC" fill-opacity="0.85"/>
</g>
<g id="monitorBaseDepth" style="mix-blend-mode:multiply">
<path id="Vector_9" d="M1006.58 846C1007.32 846.97 1007.88 850.481 1008 851.5C1014.47 905 716.931 909.5 669.785 866.138C662.718 859.638 665 849.5 666.5 846.5C673.5 832.5 696.8 826.807 708.5 820.5C806 788.5 967.5 795 1006.58 846Z" fill="#5B39AC" fill-opacity="0.85"/>
</g>
</g>
<g id="screenNeck" filter="url(#filter3_d_23_70)">
<path id="Vector_10" d="M881.834 829.105C881.434 825.105 876.5 812.5 875.5 801C875.5 801.779 874.5 792.261 874.5 784.5V741.5L870.834 691.105C870.5 688.5 869.75 686.139 869 684C865.5 673 858.902 667.612 848 663C833.5 658 826.356 662.423 819.5 666C811.572 670.136 806.817 677.74 804.606 685C803.235 689.5 803.334 694 803.334 697.605L805.749 729C805.841 730.2 806.689 748 805.749 757C803.322 780.217 799.53 813.099 798.334 825.105C798.333 839 799 855.465 849 845.925C860.556 844.52 883.3 839.189 881.834 829.105Z" fill="#5722D7" fill-opacity="0.85"/>
<path id="Vector_11" d="M881.834 829.105C881.434 825.105 876.5 812.5 875.5 801C875.5 801.779 874.5 792.261 874.5 784.5V741.5L870.834 691.105C870.5 688.5 869.75 686.139 869 684C865.5 673 858.902 667.612 848 663C833.5 658 826.356 662.423 819.5 666C811.572 670.136 806.817 677.74 804.606 685C803.235 689.5 803.334 694 803.334 697.605L805.749 729C805.841 730.2 806.689 748 805.749 757C803.322 780.217 799.53 813.099 798.334 825.105C798.333 839 799 855.465 849 845.925C860.556 844.52 883.3 839.189 881.834 829.105Z" stroke="#3F208A" stroke-opacity="0.21" stroke-width="2"/>
</g>
<g id="mouse">
<g id="mouseBody" style="mix-blend-mode:color-dodge">
<path d="M402.774 952.484C429.159 987.923 468.684 1003.15 491.055 986.495C513.426 969.839 510.172 927.608 483.787 892.169C457.402 856.729 417.878 841.502 395.506 858.158C373.135 874.813 376.389 917.044 402.774 952.484Z" fill="#B5B5B5"/>
</g>
<path id="clicker" d="M467.281 915.826C494.281 956.826 475.781 988.326 467.281 990.326" stroke="#524C4C" stroke-opacity="0.42" stroke-width="5"/>
<path id="cord" d="M465.781 988.826C517.781 1089.63 620.781 1066.83 665.281 1042.33C754.447 1004.66 930.281 943.626 920.281 1000.83C907.781 1072.33 960.781 1060.83 1047.78 1042.33" stroke="#666666" stroke-width="6"/>
</g>
</g>
</g>
<g id="Rectangle">
<rect x="40" y="4" width="72.8125" height="30" rx="3" fill="white"/>
<rect x="40.5" y="4.5" width="71.8125" height="29" rx="2.5" stroke="black" stroke-opacity="0.2"/>
</g>
<path id="homeImage_2" d="M47.7656 18.3906V22H46.8438V14H47.7656V16.9375H47.8438C47.9844 16.6276 48.1953 16.3815 48.4766 16.1992C48.7604 16.0143 49.138 15.9219 49.6094 15.9219C50.0182 15.9219 50.3763 16.0039 50.6836 16.168C50.9909 16.3294 51.2292 16.5781 51.3984 16.9141C51.5703 17.2474 51.6563 17.6719 51.6563 18.1875V22H50.7344V18.25C50.7344 17.7734 50.6107 17.4049 50.3633 17.1445C50.1185 16.8815 49.7786 16.75 49.3438 16.75C49.0417 16.75 48.7708 16.8138 48.5313 16.9414C48.2943 17.069 48.1068 17.2552 47.9688 17.5C47.8333 17.7448 47.7656 18.0417 47.7656 18.3906ZM55.7803 22.125C55.2386 22.125 54.7633 21.9961 54.3545 21.7383C53.9482 21.4805 53.6305 21.1198 53.4014 20.6562C53.1748 20.1927 53.0615 19.651 53.0615 19.0312C53.0615 18.4062 53.1748 17.8607 53.4014 17.3945C53.6305 16.9284 53.9482 16.5664 54.3545 16.3086C54.7633 16.0508 55.2386 15.9219 55.7803 15.9219C56.3219 15.9219 56.7959 16.0508 57.2021 16.3086C57.611 16.5664 57.9287 16.9284 58.1553 17.3945C58.3844 17.8607 58.499 18.4062 58.499 19.0312C58.499 19.651 58.3844 20.1927 58.1553 20.6562C57.9287 21.1198 57.611 21.4805 57.2021 21.7383C56.7959 21.9961 56.3219 22.125 55.7803 22.125ZM55.7803 21.2969C56.1917 21.2969 56.5303 21.1914 56.7959 20.9805C57.0615 20.7695 57.2581 20.4922 57.3857 20.1484C57.5133 19.8047 57.5771 19.4323 57.5771 19.0312C57.5771 18.6302 57.5133 18.2565 57.3857 17.9102C57.2581 17.5638 57.0615 17.2839 56.7959 17.0703C56.5303 16.8568 56.1917 16.75 55.7803 16.75C55.3688 16.75 55.0303 16.8568 54.7646 17.0703C54.499 17.2839 54.3024 17.5638 54.1748 17.9102C54.0472 18.2565 53.9834 18.6302 53.9834 19.0312C53.9834 19.4323 54.0472 19.8047 54.1748 20.1484C54.3024 20.4922 54.499 20.7695 54.7646 20.9805C55.0303 21.1914 55.3688 21.2969 55.7803 21.2969ZM59.9063 22V16H60.7969V16.9375H60.875C61 16.6172 61.2018 16.3685 61.4805 16.1914C61.7591 16.0117 62.0938 15.9219 62.4844 15.9219C62.8802 15.9219 63.2096 16.0117 63.4727 16.1914C63.7383 16.3685 63.9453 16.6172 64.0938 16.9375H64.1563C64.3099 16.6276 64.5404 16.3815 64.8477 16.1992C65.1549 16.0143 65.5234 15.9219 65.9531 15.9219C66.4896 15.9219 66.9284 16.0898 67.2695 16.4258C67.6107 16.7591 67.7813 17.2786 67.7813 17.9844V22H66.8594V17.9844C66.8594 17.5417 66.7383 17.2253 66.4961 17.0352C66.2539 16.8451 65.9688 16.75 65.6406 16.75C65.2188 16.75 64.8919 16.8776 64.6602 17.1328C64.4284 17.3854 64.3125 17.7057 64.3125 18.0937V22H63.375V17.8906C63.375 17.5495 63.2643 17.2747 63.043 17.0664C62.8216 16.8555 62.5365 16.75 62.1875 16.75C61.9479 16.75 61.724 16.8138 61.5156 16.9414C61.3099 17.069 61.1432 17.2461 61.0156 17.4727C60.8906 17.6966 60.8281 17.9557 60.8281 18.25V22H59.9063ZM71.9824 22.125C71.4043 22.125 70.9056 21.9974 70.4863 21.7422C70.0697 21.4844 69.748 21.125 69.5215 20.6641C69.2975 20.2005 69.1855 19.6615 69.1855 19.0469C69.1855 18.4323 69.2975 17.8906 69.5215 17.4219C69.748 16.9505 70.0632 16.5833 70.4668 16.3203C70.873 16.0547 71.347 15.9219 71.8887 15.9219C72.2012 15.9219 72.5098 15.974 72.8145 16.0781C73.1191 16.1823 73.3965 16.3516 73.6465 16.5859C73.8965 16.8177 74.0957 17.125 74.2441 17.5078C74.3926 17.8906 74.4668 18.362 74.4668 18.9219V19.3125H69.8418V18.5156H73.5293C73.5293 18.1771 73.4616 17.875 73.3262 17.6094C73.1934 17.3437 73.0033 17.1341 72.7559 16.9805C72.5111 16.8268 72.222 16.75 71.8887 16.75C71.5215 16.75 71.2038 16.8411 70.9355 17.0234C70.6699 17.2031 70.4655 17.4375 70.3223 17.7266C70.179 18.0156 70.1074 18.3255 70.1074 18.6562V19.1875C70.1074 19.6406 70.1855 20.0247 70.3418 20.3398C70.5007 20.6523 70.7207 20.8906 71.002 21.0547C71.2832 21.2161 71.61 21.2969 71.9824 21.2969C72.2246 21.2969 72.4434 21.263 72.6387 21.1953C72.8366 21.125 73.0072 21.0208 73.1504 20.8828C73.2936 20.7422 73.4043 20.5677 73.4824 20.3594L74.373 20.6094C74.2793 20.9115 74.1217 21.1771 73.9004 21.4062C73.679 21.6328 73.4056 21.8099 73.0801 21.9375C72.7546 22.0625 72.3887 22.125 71.9824 22.125ZM76.9629 14V22H75.9941V14H76.9629ZM78.7803 22V16H79.6709V16.9375H79.749C79.874 16.6172 80.0758 16.3685 80.3545 16.1914C80.6331 16.0117 80.9678 15.9219 81.3584 15.9219C81.7542 15.9219 82.0837 16.0117 82.3467 16.1914C82.6123 16.3685 82.8193 16.6172 82.9678 16.9375H83.0303C83.1839 16.6276 83.4144 16.3815 83.7217 16.1992C84.029 16.0143 84.3975 15.9219 84.8271 15.9219C85.3636 15.9219 85.8024 16.0898 86.1436 16.4258C86.4847 16.7591 86.6553 17.2786 86.6553 17.9844V22H85.7334V17.9844C85.7334 17.5417 85.6123 17.2253 85.3701 17.0352C85.1279 16.8451 84.8428 16.75 84.5146 16.75C84.0928 16.75 83.766 16.8776 83.5342 17.1328C83.3024 17.3854 83.1865 17.7057 83.1865 18.0937V22H82.249V17.8906C82.249 17.5495 82.1383 17.2747 81.917 17.0664C81.6956 16.8555 81.4105 16.75 81.0615 16.75C80.8219 16.75 80.598 16.8138 80.3896 16.9414C80.1839 17.069 80.0173 17.2461 79.8896 17.4727C79.7646 17.6966 79.7021 17.9557 79.7021 18.25V22H78.7803ZM90.1064 22.1406C89.7262 22.1406 89.3812 22.069 89.0713 21.9258C88.7614 21.7799 88.5153 21.5703 88.333 21.2969C88.1507 21.0208 88.0596 20.6875 88.0596 20.2969C88.0596 19.9531 88.1273 19.6745 88.2627 19.4609C88.3981 19.2448 88.5791 19.0755 88.8057 18.9531C89.0322 18.8307 89.2822 18.7396 89.5557 18.6797C89.8317 18.6172 90.109 18.5677 90.3877 18.5313C90.7523 18.4844 91.0479 18.4492 91.2744 18.4258C91.5036 18.3997 91.6702 18.3568 91.7744 18.2969C91.8812 18.237 91.9346 18.1328 91.9346 17.9844V17.9531C91.9346 17.5677 91.8291 17.2682 91.6182 17.0547C91.4098 16.8411 91.0934 16.7344 90.6689 16.7344C90.2288 16.7344 89.8838 16.8307 89.6338 17.0234C89.3838 17.2161 89.208 17.4219 89.1064 17.6406L88.2314 17.3281C88.3877 16.9635 88.596 16.6797 88.8564 16.4766C89.1195 16.2708 89.4059 16.1276 89.7158 16.0469C90.0283 15.9635 90.3356 15.9219 90.6377 15.9219C90.8304 15.9219 91.0518 15.9453 91.3018 15.9922C91.5544 16.0365 91.7979 16.1289 92.0322 16.2695C92.2692 16.4102 92.4658 16.6224 92.6221 16.9062C92.7783 17.1901 92.8564 17.5703 92.8564 18.0469V22H91.9346V21.1875H91.8877C91.8252 21.3177 91.721 21.457 91.5752 21.6055C91.4294 21.7539 91.2354 21.8802 90.9932 21.9844C90.751 22.0885 90.4554 22.1406 90.1064 22.1406ZM90.2471 21.3125C90.6117 21.3125 90.9189 21.2409 91.1689 21.0977C91.4215 20.9544 91.6117 20.7695 91.7393 20.543C91.8695 20.3164 91.9346 20.0781 91.9346 19.8281V18.9844C91.8955 19.0312 91.8096 19.0742 91.6768 19.1133C91.5465 19.1497 91.3955 19.1823 91.2236 19.2109C91.0544 19.237 90.889 19.2604 90.7275 19.2812C90.5687 19.2995 90.4398 19.3151 90.3408 19.3281C90.1012 19.3594 89.8773 19.4102 89.6689 19.4805C89.4632 19.5482 89.2965 19.651 89.1689 19.7891C89.0439 19.9245 88.9814 20.1094 88.9814 20.3437C88.9814 20.6641 89.0999 20.9062 89.3369 21.0703C89.5765 21.2318 89.8799 21.3125 90.2471 21.3125ZM96.9609 24.375C96.5156 24.375 96.1328 24.3177 95.8125 24.2031C95.4922 24.0911 95.2253 23.9427 95.0117 23.7578C94.8008 23.5755 94.6328 23.3802 94.5078 23.1719L95.2422 22.6563C95.3255 22.7656 95.431 22.8906 95.5586 23.0312C95.6862 23.1745 95.8607 23.2982 96.082 23.4023C96.306 23.5091 96.599 23.5625 96.9609 23.5625C97.4453 23.5625 97.8451 23.4453 98.1602 23.2109C98.4753 22.9766 98.6328 22.6094 98.6328 22.1094V20.8906H98.5547C98.487 21 98.3906 21.1354 98.2656 21.2969C98.1432 21.4557 97.9661 21.5977 97.7344 21.7227C97.5052 21.8451 97.1953 21.9062 96.8047 21.9062C96.3203 21.9062 95.8854 21.7917 95.5 21.5625C95.1172 21.3333 94.8138 21 94.5898 20.5625C94.3685 20.125 94.2578 19.5937 94.2578 18.9687C94.2578 18.3542 94.3659 17.819 94.582 17.3633C94.7982 16.9049 95.099 16.5508 95.4844 16.3008C95.8698 16.0482 96.3151 15.9219 96.8203 15.9219C97.2109 15.9219 97.5208 15.987 97.75 16.1172C97.9818 16.2448 98.1589 16.3906 98.2813 16.5547C98.4063 16.7161 98.5026 16.849 98.5703 16.9531H98.6641V16H99.5547V22.1719C99.5547 22.6875 99.4375 23.1068 99.2031 23.4297C98.9714 23.7552 98.6589 23.9935 98.2656 24.1445C97.875 24.2982 97.4401 24.375 96.9609 24.375ZM96.9297 21.0781C97.2995 21.0781 97.612 20.9935 97.8672 20.8242C98.1224 20.6549 98.3164 20.4115 98.4492 20.0938C98.582 19.776 98.6484 19.3958 98.6484 18.9531C98.6484 18.5208 98.5833 18.1393 98.4531 17.8086C98.3229 17.4779 98.1302 17.2187 97.875 17.0312C97.6198 16.8437 97.3047 16.75 96.9297 16.75C96.5391 16.75 96.2135 16.849 95.9531 17.0469C95.6953 17.2448 95.5013 17.5104 95.3711 17.8438C95.2435 18.1771 95.1797 18.5469 95.1797 18.9531C95.1797 19.3698 95.2448 19.7383 95.375 20.0586C95.5078 20.3763 95.7031 20.6263 95.9609 20.8086C96.2214 20.9883 96.5443 21.0781 96.9297 21.0781ZM103.758 22.125C103.18 22.125 102.681 21.9974 102.262 21.7422C101.845 21.4844 101.523 21.125 101.297 20.6641C101.073 20.2005 100.961 19.6615 100.961 19.0469C100.961 18.4323 101.073 17.8906 101.297 17.4219C101.523 16.9505 101.839 16.5833 102.242 16.3203C102.648 16.0547 103.122 15.9219 103.664 15.9219C103.977 15.9219 104.285 15.974 104.59 16.0781C104.895 16.1823 105.172 16.3516 105.422 16.5859C105.672 16.8177 105.871 17.125 106.02 17.5078C106.168 17.8906 106.242 18.362 106.242 18.9219V19.3125H101.617V18.5156H105.305C105.305 18.1771 105.237 17.875 105.102 17.6094C104.969 17.3437 104.779 17.1341 104.531 16.9805C104.286 16.8268 103.997 16.75 103.664 16.75C103.297 16.75 102.979 16.8411 102.711 17.0234C102.445 17.2031 102.241 17.4375 102.098 17.7266C101.954 18.0156 101.883 18.3255 101.883 18.6562V19.1875C101.883 19.6406 101.961 20.0247 102.117 20.3398C102.276 20.6523 102.496 20.8906 102.777 21.0547C103.059 21.2161 103.385 21.2969 103.758 21.2969C104 21.2969 104.219 21.263 104.414 21.1953C104.612 21.125 104.783 21.0208 104.926 20.8828C105.069 20.7422 105.18 20.5677 105.258 20.3594L106.148 20.6094C106.055 20.9115 105.897 21.1771 105.676 21.4062C105.454 21.6328 105.181 21.8099 104.855 21.9375C104.53 22.0625 104.164 22.125 103.758 22.125Z" fill="black"/>
<defs>
<filter id="filter0_d_23_70" x="414.793" y="304" width="301.998" height="294.995" filterUnits="userSpaceOnUse" color-interpolation-filters="sRGB">
<feFlood flood-opacity="0" result="BackgroundImageFix"/>
<feColorMatrix in="SourceAlpha" type="matrix" values="0 0 0 0 0 0 0 0 0 0 0 0 0 0 0 0 0 0 127 0" result="hardAlpha"/>
<feOffset dy="4"/>
<feGaussianBlur stdDeviation="2"/>
<feComposite in2="hardAlpha" operator="out"/>
<feColorMatrix type="matrix" values="0 0 0 0 0 0 0 0 0 0 0 0 0 0 0 0 0 0 0.25 0"/>
<feBlend mode="normal" in2="BackgroundImageFix" result="effect1_dropShadow_23_70"/>
<feBlend mode="normal" in="SourceGraphic" in2="effect1_dropShadow_23_70" result="shape"/>
</filter>
<filter id="filter1_d_23_70" x="460.307" y="100.494" width="187.09" height="249.267" filterUnits="userSpaceOnUse" color-interpolation-filters="sRGB">
<feFlood flood-opacity="0" result="BackgroundImageFix"/>
<feColorMatrix in="SourceAlpha" type="matrix" values="0 0 0 0 0 0 0 0 0 0 0 0 0 0 0 0 0 0 127 0" result="hardAlpha"/>
<feOffset dy="18"/>
<feGaussianBlur stdDeviation="2"/>
<feComposite in2="hardAlpha" operator="out"/>
<feColorMatrix type="matrix" values="0 0 0 0 0 0 0 0 0 0 0 0 0 0 0 0 0 0 0.25 0"/>
<feBlend mode="normal" in2="BackgroundImageFix" result="effect1_dropShadow_23_70"/>
<feBlend mode="normal" in="SourceGraphic" in2="effect1_dropShadow_23_70" result="shape"/>
</filter>
<filter id="filter2_d_23_70" x="537.062" y="390.752" width="515.585" height="388.601" filterUnits="userSpaceOnUse" color-interpolation-filters="sRGB">
<feFlood flood-opacity="0" result="BackgroundImageFix"/>
<feColorMatrix in="SourceAlpha" type="matrix" values="0 0 0 0 0 0 0 0 0 0 0 0 0 0 0 0 0 0 127 0" result="hardAlpha"/>
<feOffset dy="4"/>
<feGaussianBlur stdDeviation="2"/>
<feComposite in2="hardAlpha" operator="out"/>
<feColorMatrix type="matrix" values="0 0 0 0 0 0 0 0 0 0 0 0 0 0 0 0 0 0 0.25 0"/>
<feBlend mode="normal" in2="BackgroundImageFix" result="effect1_dropShadow_23_70"/>
<feBlend mode="normal" in="SourceGraphic" in2="effect1_dropShadow_23_70" result="shape"/>
</filter>
<filter id="filter3_d_23_70" x="793.334" y="659.758" width="93.5681" height="214.002" filterUnits="userSpaceOnUse" color-interpolation-filters="sRGB">
<feFlood flood-opacity="0" result="BackgroundImageFix"/>
<feColorMatrix in="SourceAlpha" type="matrix" values="0 0 0 0 0 0 0 0 0 0 0 0 0 0 0 0 0 0 127 0" result="hardAlpha"/>
<feOffset dy="20"/>
<feGaussianBlur stdDeviation="2"/>
<feComposite in2="hardAlpha" operator="out"/>
<feColorMatrix type="matrix" values="0 0 0 0 0 0 0 0 0 0 0 0 0 0 0 0 0 0 0.25 0"/>
<feBlend mode="normal" in2="BackgroundImageFix" result="effect1_dropShadow_23_70"/>
<feBlend mode="normal" in="SourceGraphic" in2="effect1_dropShadow_23_70" result="shape"/>
</filter>
</defs>
</svg>
