<svg width="1269" height="956" viewBox="0 0 1269 956" fill="none" xmlns="http://www.w3.org/2000/svg">
<path d="M1268.95 448.549C1268.95 491.267 1259.82 532.535 1242.82 571.5C1164.97 749.884 922.066 880 634.475 880C284.064 880 0 686.833 0 448.549C0 210.264 284.064 17.097 634.475 17.097C653.361 16.8279 672.047 17.1206 690.5 17.9526C714.416 19.0309 737.939 21.0152 761 23.8569C1037.01 57.8686 1246.64 214.701 1267.32 411C1268.63 423.366 1269.18 435.89 1268.95 448.549Z" fill="#9995DB"/>
<path d="M1268.95 448.549C1268.95 491.267 1259.82 532.535 1242.82 571.5C1164.97 749.884 922.066 880 634.475 880C284.064 880 0 686.833 0 448.549C0 210.264 284.064 17.097 634.475 17.097C653.361 16.8279 672.047 17.1206 690.5 17.9526C714.416 19.0309 737.939 21.0152 761 23.8569C1037.01 57.8686 1246.64 214.701 1267.32 411C1268.63 423.366 1269.18 435.89 1268.95 448.549Z" fill="#9995DB"/>
<path d="M1268.95 448.549C1268.95 491.267 1259.82 532.535 1242.82 571.5C1164.97 749.884 922.066 880 634.475 880C284.064 880 0 686.833 0 448.549C0 210.264 284.064 17.097 634.475 17.097C653.361 16.8279 672.047 17.1206 690.5 17.9526C714.416 19.0309 737.939 21.0152 761 23.8569C1037.01 57.8686 1246.64 214.701 1267.32 411C1268.63 423.366 1269.18 435.89 1268.95 448.549Z" fill="#9995DB"/>
<path d="M1268.95 448.549C1268.95 491.267 1259.82 532.535 1242.82 571.5C1164.97 749.884 922.066 880 634.475 880C284.064 880 0 686.833 0 448.549C0 210.264 284.064 17.097 634.475 17.097C653.361 16.8279 672.047 17.1206 690.5 17.9526C714.416 19.0309 737.939 21.0152 761 23.8569C1037.01 57.8686 1246.64 214.701 1267.32 411C1268.63 423.366 1269.18 435.89 1268.95 448.549Z" fill="#9995DB"/>
<path d="M1268.95 448.549C1021.17 280.056 882.253 185.589 634.475 17.097M1268.95 448.549C1269.18 435.89 1268.63 423.366 1267.32 411C1246.64 214.701 1037.01 57.8686 761 23.8569C737.939 21.0152 714.416 19.0309 690.5 17.9526M1268.95 448.549C1268.95 491.267 1259.82 532.535 1242.82 571.5M634.475 17.097C284.064 17.097 0 210.264 0 448.549C0 686.833 284.064 880 634.475 880C922.066 880 1164.97 749.884 1242.82 571.5M634.475 17.097C653.361 16.8279 672.047 17.1206 690.5 17.9526M690.5 17.9526L1242.82 571.5" stroke="#343434" stroke-width="12"/>
<path d="M393.5 50.4301C350.494 127.323 393.5 132.5 340.163 297.428L337.869 307.619C335.335 318.881 339.487 330.599 348.548 337.752L367.353 352.599C373.373 357.352 380.985 359.618 388.624 358.932L592.63 340.625C600.443 339.924 607.645 336.107 612.612 330.035C619.853 321.182 621.255 308.916 616.2 298.657L609.423 284.905C606.458 278.888 605.595 272.049 606.973 265.483L610.923 246.658L613.728 220.194L617 154.785L614.018 117.016C613.825 114.576 613.35 112.167 612.514 109.867C578.677 16.8585 447.655 -46.3982 393.5 50.4301Z" fill="#874100" stroke="black" stroke-width="3"/>
<path d="M303.121 611.329C303.155 611.297 303.19 611.264 303.225 611.231C304.744 609.79 306.948 607.694 309.69 605.068C315.174 599.816 322.813 592.443 331.429 583.963C348.652 567.01 369.819 545.595 385.5 527.823C395.035 517.016 406.331 498.78 417.871 477.654C429.434 456.486 441.319 432.273 452.021 409.41C462.724 386.544 472.253 365.01 479.106 349.194C482.533 341.285 485.291 334.804 487.193 330.3C487.77 328.933 488.269 327.747 488.683 326.759L674.313 611.408L607.343 654.544L496.57 662.989L391.034 647.557L303.121 611.329Z" fill="#852F81" stroke="black" stroke-width="4"/>
<path d="M343.837 523.357C323.486 513.163 294.418 473.018 340.952 394L394.5 438C387.93 447.526 372.872 471.113 377.487 472.717C383.256 474.723 441.5 552.5 452 543L469 541C469 541 473.5 540.326 486 541.913C498.5 543.5 491.181 548.215 494.5 552.253C499.354 555.894 497.956 552.095 507.5 562.253C514.471 569.673 493.337 603.715 491.5 608C486.786 619 455 608 449 602.5C444.2 598.1 436.86 581 432.29 575L343.837 523.357Z" fill="#F9DBBD" stroke="black" stroke-width="2"/>
<path d="M638.344 519.451C654.89 507.246 674.523 467.259 620.696 404.943L579.847 452.198C587.191 459.559 604.299 477.976 600.436 480.119C595.608 482.799 555.853 560.577 545.009 553.86L529.544 554.783C529.544 554.783 525.428 554.899 514.535 558.274C503.642 561.648 510.903 564.649 508.575 568.734C504.818 572.711 505.47 569.14 498.552 579.605C493.498 587.248 517.656 613.923 519.963 617.411C525.884 626.365 552.495 611.644 556.983 605.846C560.574 601.208 564.443 584.972 567.578 578.96L638.344 519.451Z" fill="#F9DBBD" stroke="black" stroke-width="2"/>
<g filter="url(#filter0_d_1_379)">
<path d="M526.662 260.075C547.806 263.953 589.68 295.408 628.936 399.034C632.797 409.228 630.502 420.742 623.252 428.883L540.367 521.947C529.579 534.06 511.117 535.404 498.688 524.982L347.473 398.182C336.684 389.135 333.613 373.798 340.364 361.441C362.809 320.355 397.212 262.107 414 250.692C432.757 237.937 486.402 249.399 515.545 258.022C519.16 259.092 522.954 259.395 526.662 260.075Z" fill="#852F81"/>
<path d="M526.662 260.075C547.806 263.953 589.68 295.408 628.936 399.034C632.797 409.228 630.502 420.742 623.252 428.883L540.367 521.947C529.579 534.06 511.117 535.404 498.688 524.982L347.473 398.182C336.684 389.135 333.613 373.798 340.364 361.441C362.809 320.355 397.212 262.107 414 250.692C432.757 237.937 486.402 249.399 515.545 258.022C519.16 259.092 522.954 259.395 526.662 260.075Z" stroke="black" stroke-width="3"/>
</g>
<path d="M512.435 305.255L510.975 305.545C492.392 309.238 445.105 278.006 443.13 259.163C441.908 247.507 447.575 220.788 459.271 221.539C496.772 223.948 541.517 229.942 526.743 241.598C517.691 248.739 519.333 259.675 525.058 270.44C532.016 283.522 526.968 302.367 512.435 305.255Z" fill="#F9DBBD" stroke="black" stroke-width="3"/>
<g filter="url(#filter1_d_1_379)">
<path d="M515.641 262.424C539.912 240.796 568.081 193.769 559.977 113.421C553.241 35.2185 445.575 8.53441 392.813 95.9537C354.992 158.618 427.432 227.74 480.915 263.196C491.775 270.395 505.913 271.092 515.641 262.424Z" fill="#F9DBBD"/>
<path d="M515.641 262.424C539.912 240.796 568.081 193.769 559.977 113.421C553.241 35.2185 445.575 8.53441 392.813 95.9537C354.992 158.618 427.432 227.74 480.915 263.196C491.775 270.395 505.913 271.092 515.641 262.424Z" stroke="black" stroke-width="3"/>
</g>
<path d="M375 151C371.752 143.152 378.002 83.577 420.728 60.5298C428.734 56.2109 435.786 49.7417 442.171 43.2621C448.558 36.7816 457.33 31.455 465.423 31.7047C474.07 31.9715 482.263 37.5027 490.915 37.5027H496.874H508.995C513.889 37.5027 518.709 38.6999 523.034 40.99L538.924 49.4042C545.368 52.8161 553.238 52.4308 560.084 54.9394C579.544 62.0701 576.066 107.873 584.51 135.898C594.297 168.377 572.499 200.857 566.271 191.304C560.043 181.751 559.598 150.705 536.466 141.152C513.334 131.599 463.065 64.1097 464.4 77.4837C465.735 90.8578 435.484 169.191 429.256 180.655C423.028 192.118 436.374 233.815 399.896 217.097C375.997 206.145 378.559 159.598 375 151Z" fill="#874100" stroke="#874100"/>
<path d="M421 222C430 209.5 427 195 428.5 189.5L429.28 185.341C429.758 182.791 430.565 180.314 431.68 177.972L435 171L447.5 138.5L459 106L463.5 90L465.426 78.0596C465.631 76.7897 467.287 76.4298 468 77.5V77.5L469.506 79.3825C471.161 81.4509 473.093 83.2809 475.249 84.8206V84.8206C477.734 86.5956 479.92 88.7549 481.726 91.2175L482.961 92.9015C483.985 94.2979 485.128 95.603 486.377 96.8022L497 107L507 118.5L519 129.5L523.448 133.686C526.127 136.207 529.246 138.214 532.65 139.607L535.952 140.958C537.647 141.651 539.275 142.498 540.816 143.489L541.554 143.963C544.168 145.644 546.503 147.725 548.471 150.131V150.131C549.489 151.375 550.404 152.7 551.207 154.092L554.988 160.645C556.651 163.528 557.823 166.668 558.455 169.936L560.5 180.5" stroke="black" stroke-width="2"/>
<g style="mix-blend-mode:plus-lighter" filter="url(#filter2_d_1_379)">
<path d="M316 691.5V657L704 598L882.5 637V672.5L414.5 731.5L316 691.5Z" fill="#FEDEDE"/>
<path d="M432 696.397L896.145 636.455L900.5 670.175L436.355 730.117L432 696.397Z" fill="#524C4C"/>
</g>
<g filter="url(#filter3_b_1_379)">
<path d="M449.887 411.8C448.292 389.766 464.862 370.612 486.896 369.018L903.34 338.887C925.374 337.292 944.528 353.862 946.122 375.896L964.183 625.509C965.777 647.543 949.207 666.697 927.174 668.292L510.729 698.423C488.696 700.017 469.541 683.448 467.947 661.414L449.887 411.8Z" fill="#251351" fill-opacity="0.85"/>
<path d="M902.799 331.406L486.354 361.538C460.189 363.431 440.513 386.176 442.406 412.341L460.467 661.955C462.36 688.12 485.106 707.797 511.271 705.903L927.715 675.772C953.88 673.879 973.556 651.133 971.663 624.968L953.603 375.354C951.709 349.189 928.964 329.513 902.799 331.406Z" stroke="#110034" stroke-opacity="0.87" stroke-width="15"/>
</g>
<g style="mix-blend-mode:plus-darker" filter="url(#filter4_d_1_379)">
<path d="M754.21 765.223L754.322 765.232L754.433 765.216C800.798 758.575 843.414 762.488 874.412 770.459C889.916 774.445 902.474 779.437 911.131 784.604C915.461 787.188 921.066 786.278 923.289 788.793C925.52 791.317 924.289 797.18 924.289 799.266C924.289 801.339 923.268 803.465 921.103 805.633C918.934 807.804 915.684 809.945 911.41 812.015C902.867 816.152 890.439 819.906 875.001 823.068C844.141 829.389 801.462 833.306 754.289 833.306C707.116 833.306 664.437 829.389 633.577 823.068C618.139 819.906 605.711 816.152 597.168 812.015C592.894 809.945 589.644 807.804 587.475 805.633C585.31 803.465 584.289 801.339 584.289 799.266C584.289 797.18 583.621 790.157 585.789 787.793C587.954 785.432 592.887 787.807 597.138 785.452C605.636 780.745 618.008 776.304 633.396 772.684C664.16 765.446 706.805 761.531 754.21 765.223Z" fill="#9A9A9A" stroke="black" stroke-width="2"/>
<g filter="url(#filter5_d_1_379)">
<path d="M925.289 791.793C925.289 811.399 848.73 827.293 754.289 827.293C659.848 827.293 583.289 811.399 583.289 791.793C583.289 772.187 659.289 748.793 754.289 756.293C847.289 742.793 925.289 772.187 925.289 791.793Z" fill="#B4B4B4"/>
<path d="M754.21 757.29L754.322 757.299L754.433 757.283C800.798 750.552 843.414 754.517 874.412 762.596C889.916 766.637 902.474 771.696 911.131 776.932C915.461 779.551 918.779 782.193 921.002 784.742C923.233 787.3 924.289 789.678 924.289 791.793C924.289 793.894 923.268 796.049 921.103 798.246C918.934 800.446 915.684 802.616 911.41 804.714C902.867 808.907 890.439 812.711 875.001 815.916C844.141 822.323 801.462 826.293 754.289 826.293C707.116 826.293 664.437 822.323 633.577 815.916C618.139 812.711 605.711 808.907 597.168 804.714C592.894 802.616 589.644 800.446 587.475 798.246C585.31 796.049 584.289 793.894 584.289 791.793C584.289 789.678 585.314 787.397 587.482 785.002C589.647 782.609 592.887 780.179 597.138 777.792C605.637 773.021 618.008 768.52 633.396 764.851C664.16 757.516 706.805 753.547 754.21 757.29Z" stroke="black" stroke-width="2"/>
</g>
</g>
<path d="M509.103 437.588C507.693 420.021 520.94 404.656 538.693 403.269L874.221 377.064C891.974 375.678 907.508 388.795 908.918 406.362L924.897 605.375C926.307 622.943 913.059 638.308 895.307 639.695L559.779 665.899C542.026 667.286 526.492 654.169 525.081 636.602L509.103 437.588Z" fill="#251351" fill-opacity="0.85"/>
<path d="M509.103 437.588C507.693 420.021 520.94 404.656 538.693 403.269L874.221 377.064C891.974 375.678 907.508 388.795 908.918 406.362L924.897 605.375C926.307 622.943 913.059 638.308 895.307 639.695L559.779 665.899C542.026 667.286 526.492 654.169 525.081 636.602L509.103 437.588Z" stroke="#110034" stroke-opacity="0.87" stroke-width="15"/>
<path d="M867.696 372.098L547.688 395.654C527.582 397.134 512.462 414.916 513.917 435.371L527.795 630.509C529.25 650.964 546.729 666.346 566.835 664.866L886.842 641.311C906.948 639.831 922.067 622.049 920.613 601.594L906.735 406.456C905.28 386.001 887.802 370.618 867.696 372.098Z" stroke="#110034" stroke-opacity="0.87" stroke-width="15"/>
<g style="mix-blend-mode:plus-darker" filter="url(#filter6_d_1_379)">
<path d="M721.37 638.193C719.98 619.67 733.87 603.527 752.394 602.137V602.137C770.86 600.751 786.973 614.554 788.439 633.014L792.505 684.212L792.365 729.366C792.352 733.52 792.77 737.663 793.613 741.73L798.956 767.509C799.134 768.363 799.234 769.232 799.257 770.104V770.104C799.465 777.948 793.479 784.574 785.654 785.161L734.669 788.987C733.357 789.085 732.038 789.033 730.738 788.831V788.831C721.508 787.396 715.107 778.863 716.312 769.6L724.981 702.993C725.508 698.938 725.62 694.839 725.314 690.761L721.37 638.193Z" fill="#9A9A9A"/>
<path d="M785.467 782.668L734.482 786.494C733.361 786.578 732.233 786.533 731.122 786.36C723.233 785.134 717.761 777.84 718.791 769.923L727.46 703.316C728.009 699.091 728.126 694.822 727.807 690.574L723.863 638.006C722.577 620.859 735.434 605.916 752.581 604.63C769.675 603.347 784.59 616.124 785.947 633.212L790.005 684.307L789.865 729.358C789.851 733.685 790.287 738.001 791.165 742.238L796.509 768.016C796.656 768.725 796.739 769.446 796.758 770.17C796.931 776.681 791.962 782.181 785.467 782.668Z" stroke="black" stroke-width="5"/>
</g>
<g style="mix-blend-mode:plus-lighter" filter="url(#filter7_d_1_379)">
<ellipse cx="347.281" cy="812.5" rx="80" ry="50.5" transform="rotate(53.3319 347.281 812.5)" fill="#B5B5B5"/>
<path d="M393.861 875.064C383.42 882.838 368.739 883.342 353.139 877.332C337.567 871.333 321.381 858.927 308.378 841.463C295.376 823.999 288.133 804.935 286.851 788.297C285.567 771.629 290.26 757.709 300.701 749.935C311.141 742.162 325.823 741.658 341.423 747.668C356.994 753.667 373.181 766.073 386.183 783.537C399.185 801.001 406.429 820.065 407.711 836.703C408.995 853.371 404.301 867.291 393.861 875.064Z" stroke="black" stroke-opacity="0.19" stroke-width="4"/>
</g>
<path d="M371.281 806C398.281 847 379.781 878.5 371.281 880.5" stroke="#524C4C" stroke-opacity="0.42" stroke-width="5"/>
<path d="M369.781 879C421.781 979.8 524.781 957 569.281 932.5C658.447 894.833 834.281 833.8 824.281 891C811.781 962.5 864.781 951 951.781 932.5" stroke="#666666" stroke-width="5"/>
<defs>
<filter id="filter0_d_1_379" x="331.293" y="243.5" width="304.999" height="297.995" filterUnits="userSpaceOnUse" color-interpolation-filters="sRGB">
<feFlood flood-opacity="0" result="BackgroundImageFix"/>
<feColorMatrix in="SourceAlpha" type="matrix" values="0 0 0 0 0 0 0 0 0 0 0 0 0 0 0 0 0 0 127 0" result="hardAlpha"/>
<feOffset dy="4"/>
<feGaussianBlur stdDeviation="2"/>
<feComposite in2="hardAlpha" operator="out"/>
<feColorMatrix type="matrix" values="0 0 0 0 0 0 0 0 0 0 0 0 0 0 0 0 0 0 0.25 0"/>
<feBlend mode="normal" in2="BackgroundImageFix" result="effect1_dropShadow_1_379"/>
<feBlend mode="normal" in="SourceGraphic" in2="effect1_dropShadow_1_379" result="shape"/>
</filter>
<filter id="filter1_d_1_379" x="376.804" y="39.9932" width="190.093" height="252.267" filterUnits="userSpaceOnUse" color-interpolation-filters="sRGB">
<feFlood flood-opacity="0" result="BackgroundImageFix"/>
<feColorMatrix in="SourceAlpha" type="matrix" values="0 0 0 0 0 0 0 0 0 0 0 0 0 0 0 0 0 0 127 0" result="hardAlpha"/>
<feOffset dy="18"/>
<feGaussianBlur stdDeviation="2"/>
<feComposite in2="hardAlpha" operator="out"/>
<feColorMatrix type="matrix" values="0 0 0 0 0 0 0 0 0 0 0 0 0 0 0 0 0 0 0.25 0"/>
<feBlend mode="normal" in2="BackgroundImageFix" result="effect1_dropShadow_1_379"/>
<feBlend mode="normal" in="SourceGraphic" in2="effect1_dropShadow_1_379" result="shape"/>
</filter>
<filter id="filter2_d_1_379" x="312" y="598" width="592.5" height="141.5" filterUnits="userSpaceOnUse" color-interpolation-filters="sRGB">
<feFlood flood-opacity="0" result="BackgroundImageFix"/>
<feColorMatrix in="SourceAlpha" type="matrix" values="0 0 0 0 0 0 0 0 0 0 0 0 0 0 0 0 0 0 127 0" result="hardAlpha"/>
<feOffset dy="4"/>
<feGaussianBlur stdDeviation="2"/>
<feComposite in2="hardAlpha" operator="out"/>
<feColorMatrix type="matrix" values="0 0 0 0 0 0 0 0 0 0 0 0 0 0 0 0 0 0 0.25 0"/>
<feBlend mode="normal" in2="BackgroundImageFix" result="effect1_dropShadow_1_379"/>
<feBlend mode="normal" in="SourceGraphic" in2="effect1_dropShadow_1_379" result="shape"/>
</filter>
<filter id="filter3_b_1_379" x="401.78" y="290.78" width="610.509" height="455.75" filterUnits="userSpaceOnUse" color-interpolation-filters="sRGB">
<feFlood flood-opacity="0" result="BackgroundImageFix"/>
<feGaussianBlur in="BackgroundImageFix" stdDeviation="16.5"/>
<feComposite in2="SourceAlpha" operator="in" result="effect1_backgroundBlur_1_379"/>
<feBlend mode="normal" in="SourceGraphic" in2="effect1_backgroundBlur_1_379" result="shape"/>
</filter>
<filter id="filter4_d_1_379" x="579.193" y="752.864" width="350.435" height="91.4425" filterUnits="userSpaceOnUse" color-interpolation-filters="sRGB">
<feFlood flood-opacity="0" result="BackgroundImageFix"/>
<feColorMatrix in="SourceAlpha" type="matrix" values="0 0 0 0 0 0 0 0 0 0 0 0 0 0 0 0 0 0 127 0" result="hardAlpha"/>
<feOffset dy="6"/>
<feGaussianBlur stdDeviation="2"/>
<feComposite in2="hardAlpha" operator="out"/>
<feColorMatrix type="matrix" values="0 0 0 0 0 0 0 0 0 0 0 0 0 0 0 0 0 0 0.25 0"/>
<feBlend mode="normal" in2="BackgroundImageFix" result="effect1_dropShadow_1_379"/>
<feBlend mode="normal" in="SourceGraphic" in2="effect1_dropShadow_1_379" result="shape"/>
</filter>
<filter id="filter5_d_1_379" x="581.289" y="752.864" width="350" height="82.4292" filterUnits="userSpaceOnUse" color-interpolation-filters="sRGB">
<feFlood flood-opacity="0" result="BackgroundImageFix"/>
<feColorMatrix in="SourceAlpha" type="matrix" values="0 0 0 0 0 0 0 0 0 0 0 0 0 0 0 0 0 0 127 0" result="hardAlpha"/>
<feOffset dx="2" dy="4"/>
<feGaussianBlur stdDeviation="2"/>
<feComposite in2="hardAlpha" operator="out"/>
<feColorMatrix type="matrix" values="0 0 0 0 0 0 0 0 0 0 0 0 0 0 0 0 0 0 0.25 0"/>
<feBlend mode="normal" in2="BackgroundImageFix" result="effect1_dropShadow_1_379"/>
<feBlend mode="normal" in="SourceGraphic" in2="effect1_dropShadow_1_379" result="shape"/>
</filter>
<filter id="filter6_d_1_379" x="706.166" y="602.041" width="103.096" height="216.994" filterUnits="userSpaceOnUse" color-interpolation-filters="sRGB">
<feFlood flood-opacity="0" result="BackgroundImageFix"/>
<feColorMatrix in="SourceAlpha" type="matrix" values="0 0 0 0 0 0 0 0 0 0 0 0 0 0 0 0 0 0 127 0" result="hardAlpha"/>
<feOffset dy="20"/>
<feGaussianBlur stdDeviation="5"/>
<feComposite in2="hardAlpha" operator="out"/>
<feColorMatrix type="matrix" values="0 0 0 0 0 0 0 0 0 0 0 0 0 0 0 0 0 0 0.25 0"/>
<feBlend mode="normal" in2="BackgroundImageFix" result="effect1_dropShadow_1_379"/>
<feBlend mode="normal" in="SourceGraphic" in2="effect1_dropShadow_1_379" result="shape"/>
</filter>
<filter id="filter7_d_1_379" x="280.644" y="741.581" width="133.273" height="151.838" filterUnits="userSpaceOnUse" color-interpolation-filters="sRGB">
<feFlood flood-opacity="0" result="BackgroundImageFix"/>
<feColorMatrix in="SourceAlpha" type="matrix" values="0 0 0 0 0 0 0 0 0 0 0 0 0 0 0 0 0 0 127 0" result="hardAlpha"/>
<feOffset dy="6"/>
<feGaussianBlur stdDeviation="2"/>
<feComposite in2="hardAlpha" operator="out"/>
<feColorMatrix type="matrix" values="0 0 0 0 0 0 0 0 0 0 0 0 0 0 0 0 0 0 0.25 0"/>
<feBlend mode="normal" in2="BackgroundImageFix" result="effect1_dropShadow_1_379"/>
<feBlend mode="normal" in="SourceGraphic" in2="effect1_dropShadow_1_379" result="shape"/>
</filter>
</defs>
</svg>
