<svg width="1295" height="989" viewBox="0 0 1295 989" fill="none" xmlns="http://www.w3.org/2000/svg">
<g id="homeImage">
<g id="background">
<path d="M1279.95 464.549C1279.95 507.267 1270.82 548.535 1253.82 587.5C1175.97 765.884 933.066 896 645.475 896C295.064 896 11 702.833 11 464.549C11 226.264 295.064 33.097 645.475 33.097C664.361 32.8279 683.047 33.1206 701.5 33.9526C725.416 35.0309 748.939 37.0152 772 39.8569C1048.01 73.8686 1257.64 230.701 1278.32 427C1279.63 439.366 1280.18 451.89 1279.95 464.549Z" fill="#9995DB"/>
<path d="M1279.95 464.549C1279.95 507.267 1270.82 548.535 1253.82 587.5C1175.97 765.884 933.066 896 645.475 896C295.064 896 11 702.833 11 464.549C11 226.264 295.064 33.097 645.475 33.097C664.361 32.8279 683.047 33.1206 701.5 33.9526C725.416 35.0309 748.939 37.0152 772 39.8569C1048.01 73.8686 1257.64 230.701 1278.32 427C1279.63 439.366 1280.18 451.89 1279.95 464.549Z" fill="#9995DB"/>
<path d="M1279.95 464.549C1279.95 507.267 1270.82 548.535 1253.82 587.5C1175.97 765.884 933.066 896 645.475 896C295.064 896 11 702.833 11 464.549C11 226.264 295.064 33.097 645.475 33.097C664.361 32.8279 683.047 33.1206 701.5 33.9526C725.416 35.0309 748.939 37.0152 772 39.8569C1048.01 73.8686 1257.64 230.701 1278.32 427C1279.63 439.366 1280.18 451.89 1279.95 464.549Z" fill="#9995DB"/>
<path d="M1279.95 464.549C1279.95 507.267 1270.82 548.535 1253.82 587.5C1175.97 765.884 933.066 896 645.475 896C295.064 896 11 702.833 11 464.549C11 226.264 295.064 33.097 645.475 33.097C664.361 32.8279 683.047 33.1206 701.5 33.9526C725.416 35.0309 748.939 37.0152 772 39.8569C1048.01 73.8686 1257.64 230.701 1278.32 427C1279.63 439.366 1280.18 451.89 1279.95 464.549Z" fill="#9995DB"/>
<path d="M1279.95 464.549C1032.17 296.056 893.253 201.589 645.475 33.097M1279.95 464.549C1280.18 451.89 1279.63 439.366 1278.32 427C1257.64 230.701 1048.01 73.8686 772 39.8569C748.939 37.0152 725.416 35.0309 701.5 33.9526M1279.95 464.549C1279.95 507.267 1270.82 548.535 1253.82 587.5M645.475 33.097C295.064 33.097 11 226.264 11 464.549C11 702.833 295.064 896 645.475 896C933.066 896 1175.97 765.884 1253.82 587.5M645.475 33.097C664.361 32.8279 683.047 33.1206 701.5 33.9526M701.5 33.9526L1253.82 587.5" stroke="#343434" stroke-width="12"/>
</g>
<g id="person">
<path id="hairBack" d="M404.5 66.4301C361.494 143.323 404.5 148.5 351.163 313.428L348.869 323.619C346.335 334.881 350.487 346.599 359.548 353.752L378.353 368.599C384.373 373.352 391.985 375.618 399.624 374.932L603.63 356.625C611.443 355.924 618.645 352.107 623.612 346.035C630.853 337.182 632.255 324.916 627.2 314.657L620.423 300.905C617.458 294.888 616.595 288.049 617.973 281.483L621.923 262.658L624.728 236.194L628 170.785L625.018 133.016C624.825 130.576 624.35 128.167 623.514 125.867C589.677 32.8585 458.655 -30.3982 404.5 66.4301Z" fill="#874100"/>
<path id="chestLower" d="M499.294 338.5L688.087 628L619 672.5L507.5 681L401.5 665.5L310.5 628C310.5 628 363.736 577.933 395 542.5C432.5 500 499.294 338.5 499.294 338.5Z" fill="#852F81"/>
<g id="arms">
<path id="arm-left" d="M354.837 539.357C334.486 529.163 305.418 489.018 351.952 410L405.5 454C398.93 463.526 383.872 487.113 388.487 488.717C394.256 490.723 452.5 568.5 463 559L480 557C480 557 484.5 556.326 497 557.913C509.5 559.5 502.181 564.215 505.5 568.253C510.354 571.894 508.956 568.095 518.5 578.253C525.471 585.673 504.337 619.715 502.5 624C497.786 635 466 624 460 618.5C455.2 614.1 447.86 597 443.29 591L354.837 539.357Z" fill="#F9DBBD"/>
<path id="arm-right" d="M649.344 535.451C665.89 523.246 685.523 483.259 631.696 420.943L590.847 468.198C598.191 475.559 615.299 493.976 611.436 496.119C606.608 498.799 566.853 576.577 556.009 569.86L540.544 570.783C540.544 570.783 536.428 570.899 525.535 574.274C514.642 577.648 521.903 580.649 519.575 584.734C515.818 588.711 516.47 585.14 509.552 595.605C504.498 603.248 528.656 629.923 530.963 633.411C536.884 642.365 563.495 627.644 567.983 621.846C571.574 617.208 575.443 600.972 578.578 594.96L649.344 535.451Z" fill="#F9DBBD"/>
</g>
<g id="chestBase" filter="url(#filter0_d_1_379)">
<path d="M537.662 276.075C558.806 279.953 600.68 311.408 639.936 415.034C643.797 425.228 641.502 436.742 634.252 444.883L551.367 537.947C540.579 550.06 522.117 551.404 509.688 540.982L358.473 414.182C347.684 405.135 344.613 389.798 351.364 377.441C373.809 336.355 408.212 278.107 425 266.692C443.757 253.937 497.402 265.399 526.545 274.022C530.16 275.092 533.954 275.395 537.662 276.075Z" fill="#852F81"/>
</g>
<g id="skin">
<path id="neck" d="M523.435 321.255L521.975 321.545C503.392 325.238 456.105 294.006 454.13 275.163C452.908 263.507 458.575 236.788 470.271 237.539C507.772 239.948 552.517 245.942 537.743 257.598C528.691 264.739 530.333 275.675 536.058 286.44C543.016 299.522 537.968 318.367 523.435 321.255Z" fill="#F9DBBD"/>
<g id="face" filter="url(#filter1_d_1_379)">
<path d="M526.641 278.424C550.912 256.796 579.081 209.769 570.977 129.421C564.241 51.2185 456.575 24.5344 403.813 111.954C365.992 174.618 438.432 243.74 491.915 279.196C502.775 286.395 516.913 287.092 526.641 278.424Z" fill="#F9DBBD"/>
</g>
</g>
<path id="hairFront" d="M386 167C382.752 159.152 389.002 99.577 431.728 76.5298C439.734 72.2109 446.786 65.7417 453.171 59.2621C459.558 52.7816 468.33 47.455 476.423 47.7047C485.07 47.9715 493.263 53.5027 501.915 53.5027H507.874H519.995C524.889 53.5027 529.709 54.6999 534.034 56.99L549.924 65.4042C556.368 68.8161 564.238 68.4308 571.084 70.9394C590.544 78.0701 587.066 123.873 595.51 151.898C605.297 184.377 583.499 216.857 577.271 207.304C571.043 197.751 570.598 166.705 547.466 157.152C524.334 147.599 474.065 80.1097 475.4 93.4837C476.735 106.858 446.484 185.191 440.256 196.655C434.028 208.118 447.374 249.815 410.896 233.097C386.997 222.145 389.559 175.598 386 167Z" fill="#874100" stroke="#874100"/>
</g>
<g id="keyboard" style="mix-blend-mode:plus-lighter" filter="url(#filter2_d_1_379)">
<path d="M327 707.5V673L715 614L893.5 653V688.5L425.5 747.5L327 707.5Z" fill="#FEDEDE"/>
<path d="M442 719.446L893.5 653V688.5L425.5 747.5L442 719.446Z" fill="#524C4C"/>
</g>
<g id="computer">
<g id="computerScreen" filter="url(#filter3_bd_1_379)">
<path d="M460.887 427.8C459.292 405.766 475.862 386.612 497.896 385.018L914.34 354.887C936.374 353.292 955.528 369.862 957.122 391.896L975.183 641.509C976.777 663.543 960.207 682.697 938.174 684.292L521.729 714.423C499.696 716.017 480.541 699.448 478.947 677.414L460.887 427.8Z" fill="#5B39AC" fill-opacity="0.85" shape-rendering="crispEdges"/>
</g>
<g id="computerScreen_2" filter="url(#filter4_bd_1_379)">
<mask id="path-13-outside-1_1_379" maskUnits="userSpaceOnUse" x="522.93" y="395.867" width="415.076" height="279.067" fill="black">
<rect fill="white" x="522.93" y="395.867" width="415.076" height="279.067"/>
<path d="M526.887 465.41C525.292 443.376 541.862 424.222 563.896 422.628L878.199 399.887C900.233 398.292 919.388 414.862 920.982 436.896L933.138 604.9C934.732 626.933 918.162 646.088 896.128 647.682L581.825 670.423C559.791 672.017 540.637 655.448 539.042 633.414L526.887 465.41Z"/>
</mask>
<path d="M526.887 465.41C525.292 443.376 541.862 424.222 563.896 422.628L878.199 399.887C900.233 398.292 919.388 414.862 920.982 436.896L933.138 604.9C934.732 626.933 918.162 646.088 896.128 647.682L581.825 670.423C559.791 672.017 540.637 655.448 539.042 633.414L526.887 465.41Z" fill="#532EAB" fill-opacity="0.85" shape-rendering="crispEdges"/>
<path d="M526.887 465.41C525.292 443.376 541.862 424.222 563.896 422.628L878.199 399.887C900.233 398.292 919.388 414.862 920.982 436.896L933.138 604.9C934.732 626.933 918.162 646.088 896.128 647.682L581.825 670.423C559.791 672.017 540.637 655.448 539.042 633.414L526.887 465.41Z" stroke="#110034" stroke-opacity="0.01" stroke-width="2" shape-rendering="crispEdges" mask="url(#path-13-outside-1_1_379)"/>
</g>
<g id="screenNeck" style="mix-blend-mode:multiply" filter="url(#filter5_d_1_379)">
<path d="M732.37 654.193C730.98 635.67 744.87 619.527 763.394 618.137V618.137C781.86 616.751 797.973 630.554 799.439 649.014L803.505 700.212L803.365 745.366C803.352 749.52 803.77 753.663 804.613 757.73L809.956 783.509C810.134 784.363 810.234 785.232 810.257 786.104V786.104C810.465 793.948 804.479 800.574 796.654 801.161L745.669 804.987C744.357 805.085 743.038 805.033 741.738 804.831V804.831C732.508 803.396 726.107 794.863 727.312 785.6L735.981 718.993C736.508 714.938 736.62 710.839 736.314 706.761L732.37 654.193Z" fill="#5B39AC" fill-opacity="0.85" shape-rendering="crispEdges"/>
</g>
<g id="screenBase" style="mix-blend-mode:multiply" filter="url(#filter6_d_1_379)">
<path id="screenBaseDepth" d="M765.21 781.223L765.322 781.232L765.433 781.216C811.798 774.575 854.414 778.488 885.412 786.459C900.916 790.445 913.474 795.437 922.131 800.604C926.461 803.188 932.066 802.278 934.289 804.793C936.52 807.317 935.289 813.18 935.289 815.266C935.289 817.339 934.268 819.465 932.103 821.633C929.934 823.804 926.684 825.945 922.41 828.015C913.867 832.152 901.439 835.906 886.001 839.068C855.141 845.389 812.462 849.306 765.289 849.306C718.116 849.306 675.437 845.389 644.577 839.068C629.139 835.906 616.711 832.152 608.168 828.015C603.894 825.945 600.644 823.804 598.475 821.633C596.31 819.465 595.289 817.339 595.289 815.266C595.289 813.18 594.621 806.157 596.789 803.793C598.954 801.432 603.887 803.807 608.138 801.452C616.636 796.745 629.008 792.304 644.396 788.684C675.16 781.446 717.805 777.531 765.21 781.223Z" fill="#5B39AC" fill-opacity="0.85"/>
<g id="screenBase_2" filter="url(#filter7_d_1_379)">
<path d="M936.289 807.793C936.289 827.399 859.73 843.293 765.289 843.293C670.848 843.293 594.289 827.399 594.289 807.793C594.289 788.187 670.289 764.793 765.289 772.293C858.289 758.793 936.289 788.187 936.289 807.793Z" fill="#5B39AC" fill-opacity="0.85" shape-rendering="crispEdges"/>
</g>
</g>
<g id="mouse">
<g id="Ellipse 1" style="mix-blend-mode:plus-lighter" filter="url(#filter8_d_1_379)">
<ellipse cx="358.281" cy="828.5" rx="80" ry="50.5" transform="rotate(53.3319 358.281 828.5)" fill="#B5B5B5"/>
<path d="M404.861 891.064C394.42 898.838 379.739 899.342 364.139 893.332C348.567 887.333 332.381 874.927 319.378 857.463C306.376 839.999 299.133 820.935 297.851 804.297C296.567 787.629 301.26 773.709 311.701 765.935C322.141 758.162 336.823 757.658 352.423 763.668C367.994 769.667 384.181 782.073 397.183 799.537C410.185 817.001 417.429 836.065 418.711 852.703C419.995 869.371 415.301 883.291 404.861 891.064Z" stroke="black" stroke-opacity="0.19" stroke-width="4"/>
</g>
<path id="Vector 8" d="M382.281 822C409.281 863 390.781 894.5 382.281 896.5" stroke="#524C4C" stroke-opacity="0.42" stroke-width="5"/>
<path id="Vector 9" d="M380.781 895C432.781 995.8 535.781 973 580.281 948.5C669.447 910.833 845.281 849.8 835.281 907C822.781 978.5 875.781 967 962.781 948.5" stroke="#666666" stroke-width="6"/>
</g>
</g>
</g>
<defs>
<filter id="filter0_d_1_379" x="343.793" y="261" width="301.998" height="294.995" filterUnits="userSpaceOnUse" color-interpolation-filters="sRGB">
<feFlood flood-opacity="0" result="BackgroundImageFix"/>
<feColorMatrix in="SourceAlpha" type="matrix" values="0 0 0 0 0 0 0 0 0 0 0 0 0 0 0 0 0 0 127 0" result="hardAlpha"/>
<feOffset dy="4"/>
<feGaussianBlur stdDeviation="2"/>
<feComposite in2="hardAlpha" operator="out"/>
<feColorMatrix type="matrix" values="0 0 0 0 0 0 0 0 0 0 0 0 0 0 0 0 0 0 0.25 0"/>
<feBlend mode="normal" in2="BackgroundImageFix" result="effect1_dropShadow_1_379"/>
<feBlend mode="normal" in="SourceGraphic" in2="effect1_dropShadow_1_379" result="shape"/>
</filter>
<filter id="filter1_d_1_379" x="389.307" y="57.4936" width="187.09" height="249.267" filterUnits="userSpaceOnUse" color-interpolation-filters="sRGB">
<feFlood flood-opacity="0" result="BackgroundImageFix"/>
<feColorMatrix in="SourceAlpha" type="matrix" values="0 0 0 0 0 0 0 0 0 0 0 0 0 0 0 0 0 0 127 0" result="hardAlpha"/>
<feOffset dy="18"/>
<feGaussianBlur stdDeviation="2"/>
<feComposite in2="hardAlpha" operator="out"/>
<feColorMatrix type="matrix" values="0 0 0 0 0 0 0 0 0 0 0 0 0 0 0 0 0 0 0.25 0"/>
<feBlend mode="normal" in2="BackgroundImageFix" result="effect1_dropShadow_1_379"/>
<feBlend mode="normal" in="SourceGraphic" in2="effect1_dropShadow_1_379" result="shape"/>
</filter>
<filter id="filter2_d_1_379" x="323" y="614" width="574.5" height="143.5" filterUnits="userSpaceOnUse" color-interpolation-filters="sRGB">
<feFlood flood-opacity="0" result="BackgroundImageFix"/>
<feColorMatrix in="SourceAlpha" type="matrix" values="0 0 0 0 0 0 0 0 0 0 0 0 0 0 0 0 0 0 127 0" result="hardAlpha"/>
<feOffset dy="6"/>
<feGaussianBlur stdDeviation="2"/>
<feComposite in2="hardAlpha" operator="out"/>
<feColorMatrix type="matrix" values="0 0 0 0 0 0 0 0 0 0 0 0 0 0 0 0 0 0 0.25 0"/>
<feBlend mode="normal" in2="BackgroundImageFix" result="effect1_dropShadow_1_379"/>
<feBlend mode="normal" in="SourceGraphic" in2="effect1_dropShadow_1_379" result="shape"/>
</filter>
<filter id="filter3_bd_1_379" x="427.781" y="321.781" width="580.508" height="425.749" filterUnits="userSpaceOnUse" color-interpolation-filters="sRGB">
<feFlood flood-opacity="0" result="BackgroundImageFix"/>
<feGaussianBlur in="BackgroundImageFix" stdDeviation="16.5"/>
<feComposite in2="SourceAlpha" operator="in" result="effect1_backgroundBlur_1_379"/>
<feColorMatrix in="SourceAlpha" type="matrix" values="0 0 0 0 0 0 0 0 0 0 0 0 0 0 0 0 0 0 127 0" result="hardAlpha"/>
<feOffset dy="4"/>
<feGaussianBlur stdDeviation="2"/>
<feComposite in2="hardAlpha" operator="out"/>
<feColorMatrix type="matrix" values="0 0 0 0 0 0 0 0 0 0 0 0 0 0 0 0 0 0 0.25 0"/>
<feBlend mode="normal" in2="effect1_backgroundBlur_1_379" result="effect2_dropShadow_1_379"/>
<feBlend mode="normal" in="SourceGraphic" in2="effect2_dropShadow_1_379" result="shape"/>
</filter>
<filter id="filter4_bd_1_379" x="492.781" y="365.781" width="474.463" height="338.749" filterUnits="userSpaceOnUse" color-interpolation-filters="sRGB">
<feFlood flood-opacity="0" result="BackgroundImageFix"/>
<feGaussianBlur in="BackgroundImageFix" stdDeviation="16.5"/>
<feComposite in2="SourceAlpha" operator="in" result="effect1_backgroundBlur_1_379"/>
<feColorMatrix in="SourceAlpha" type="matrix" values="0 0 0 0 0 0 0 0 0 0 0 0 0 0 0 0 0 0 127 0" result="hardAlpha"/>
<feOffset dy="4"/>
<feGaussianBlur stdDeviation="2"/>
<feComposite in2="hardAlpha" operator="out"/>
<feColorMatrix type="matrix" values="0 0 0 0 0 0 0 0 0 0 0 0 0 0 0 0 0 0 0.25 0"/>
<feBlend mode="normal" in2="effect1_backgroundBlur_1_379" result="effect2_dropShadow_1_379"/>
<feBlend mode="normal" in="SourceGraphic" in2="effect2_dropShadow_1_379" result="shape"/>
</filter>
<filter id="filter5_d_1_379" x="717.166" y="618.041" width="103.096" height="216.994" filterUnits="userSpaceOnUse" color-interpolation-filters="sRGB">
<feFlood flood-opacity="0" result="BackgroundImageFix"/>
<feColorMatrix in="SourceAlpha" type="matrix" values="0 0 0 0 0 0 0 0 0 0 0 0 0 0 0 0 0 0 127 0" result="hardAlpha"/>
<feOffset dy="20"/>
<feGaussianBlur stdDeviation="5"/>
<feComposite in2="hardAlpha" operator="out"/>
<feColorMatrix type="matrix" values="0 0 0 0 0 0 0 0 0 0 0 0 0 0 0 0 0 0 0.25 0"/>
<feBlend mode="normal" in2="BackgroundImageFix" result="effect1_dropShadow_1_379"/>
<feBlend mode="normal" in="SourceGraphic" in2="effect1_dropShadow_1_379" result="shape"/>
</filter>
<filter id="filter6_d_1_379" x="590.289" y="768.864" width="350" height="90.4425" filterUnits="userSpaceOnUse" color-interpolation-filters="sRGB">
<feFlood flood-opacity="0" result="BackgroundImageFix"/>
<feColorMatrix in="SourceAlpha" type="matrix" values="0 0 0 0 0 0 0 0 0 0 0 0 0 0 0 0 0 0 127 0" result="hardAlpha"/>
<feOffset dy="6"/>
<feGaussianBlur stdDeviation="2"/>
<feComposite in2="hardAlpha" operator="out"/>
<feColorMatrix type="matrix" values="0 0 0 0 0 0 0 0 0 0 0 0 0 0 0 0 0 0 0.25 0"/>
<feBlend mode="normal" in2="BackgroundImageFix" result="effect1_dropShadow_1_379"/>
<feBlend mode="normal" in="SourceGraphic" in2="effect1_dropShadow_1_379" result="shape"/>
</filter>
<filter id="filter7_d_1_379" x="592.289" y="768.864" width="350" height="82.4292" filterUnits="userSpaceOnUse" color-interpolation-filters="sRGB">
<feFlood flood-opacity="0" result="BackgroundImageFix"/>
<feColorMatrix in="SourceAlpha" type="matrix" values="0 0 0 0 0 0 0 0 0 0 0 0 0 0 0 0 0 0 127 0" result="hardAlpha"/>
<feOffset dx="2" dy="4"/>
<feGaussianBlur stdDeviation="2"/>
<feComposite in2="hardAlpha" operator="out"/>
<feColorMatrix type="matrix" values="0 0 0 0 0 0 0 0 0 0 0 0 0 0 0 0 0 0 0.25 0"/>
<feBlend mode="normal" in2="BackgroundImageFix" result="effect1_dropShadow_1_379"/>
<feBlend mode="normal" in="SourceGraphic" in2="effect1_dropShadow_1_379" result="shape"/>
</filter>
<filter id="filter8_d_1_379" x="291.644" y="757.581" width="133.273" height="151.838" filterUnits="userSpaceOnUse" color-interpolation-filters="sRGB">
<feFlood flood-opacity="0" result="BackgroundImageFix"/>
<feColorMatrix in="SourceAlpha" type="matrix" values="0 0 0 0 0 0 0 0 0 0 0 0 0 0 0 0 0 0 127 0" result="hardAlpha"/>
<feOffset dy="6"/>
<feGaussianBlur stdDeviation="2"/>
<feComposite in2="hardAlpha" operator="out"/>
<feColorMatrix type="matrix" values="0 0 0 0 0 0 0 0 0 0 0 0 0 0 0 0 0 0 0.25 0"/>
<feBlend mode="normal" in2="BackgroundImageFix" result="effect1_dropShadow_1_379"/>
<feBlend mode="normal" in="SourceGraphic" in2="effect1_dropShadow_1_379" result="shape"/>
</filter>
</defs>
</svg>
