<svg width="1269" height="943" viewBox="0 0 1269 943" fill="none" xmlns="http://www.w3.org/2000/svg">
<g id="homeImage">
<g id="background">
<path d="M1268.95 448.549C1268.95 686.833 984.886 880 634.475 880C284.064 880 0 686.833 0 448.549C0 210.264 284.064 17.097 634.475 17.097C677.839 16.4792 720.147 18.8226 761 23.8569C1054.39 60.0112 1272.79 234.948 1268.95 448.549Z" fill="#9995DB"/>
<path d="M1268.95 448.549C1268.95 686.833 984.886 880 634.475 880C284.064 880 0 686.833 0 448.549C0 210.264 284.064 17.097 634.475 17.097C677.839 16.4792 720.147 18.8226 761 23.8569C1054.39 60.0112 1272.79 234.948 1268.95 448.549Z" fill="#9995DB"/>
<path d="M1268.95 448.549C1268.95 686.833 984.886 880 634.475 880C284.064 880 0 686.833 0 448.549C0 210.264 284.064 17.097 634.475 17.097C677.839 16.4792 720.147 18.8226 761 23.8569C1054.39 60.0112 1272.79 234.948 1268.95 448.549Z" fill="#9995DB"/>
<path d="M1268.95 448.549C1268.95 686.833 984.886 880 634.475 880C284.064 880 0 686.833 0 448.549C0 210.264 284.064 17.097 634.475 17.097C677.839 16.4792 720.147 18.8226 761 23.8569C1054.39 60.0112 1272.79 234.948 1268.95 448.549Z" fill="#9995DB"/>
<path d="M1268.95 448.549C1268.95 686.833 984.886 880 634.475 880C284.064 880 0 686.833 0 448.549C0 210.264 284.064 17.097 634.475 17.097M1268.95 448.549C1021.17 280.056 882.253 185.589 634.475 17.097M1268.95 448.549C1272.79 234.948 1054.39 60.0112 761 23.8569C720.147 18.8226 677.839 16.4792 634.475 17.097" stroke="white" stroke-width="5"/>
</g>
<g id="person">
<path id="hairBack" d="M393.5 50.4301C350.494 127.323 393.5 132.5 340.163 297.428L337.869 307.619C335.335 318.881 339.487 330.599 348.548 337.752L367.353 352.599C373.373 357.352 380.985 359.618 388.624 358.932L592.63 340.625C600.443 339.924 607.645 336.107 612.612 330.035C619.853 321.182 621.255 308.916 616.2 298.657L609.423 284.905C606.458 278.888 605.595 272.049 606.973 265.483L610.923 246.658L613.728 220.194L617 154.785L614.018 117.016C613.825 114.576 613.35 112.167 612.514 109.867C578.677 16.8585 447.655 -46.3982 393.5 50.4301Z" fill="#874100" stroke="black" stroke-width="3"/>
<path id="chestLower" d="M303.121 611.329C303.155 611.297 303.19 611.264 303.225 611.231C304.744 609.79 306.948 607.694 309.69 605.068C315.174 599.816 322.813 592.443 331.429 583.963C348.652 567.01 369.819 545.595 385.5 527.823C395.035 517.016 406.331 498.78 417.871 477.654C429.434 456.486 441.319 432.273 452.021 409.41C462.724 386.544 472.253 365.01 479.106 349.194C482.533 341.285 485.291 334.804 487.193 330.3C487.77 328.933 488.269 327.747 488.683 326.759L674.313 611.408L607.343 654.544L496.57 662.989L391.034 647.557L303.121 611.329Z" fill="#852F81" stroke="black" stroke-width="4"/>
<g id="arms">
<path id="Vector 5" d="M343.837 523.357C323.486 513.163 294.418 473.018 340.952 394L394.5 438C387.93 447.526 372.872 471.113 377.487 472.717C383.256 474.723 441.5 552.5 452 543L469 541C469 541 473.5 540.326 486 541.913C498.5 543.5 491.181 548.215 494.5 552.253C499.354 555.894 497.956 552.095 507.5 562.253C514.471 569.673 493.337 603.715 491.5 608C486.786 619 455 608 449 602.5C444.2 598.1 436.86 581 432.29 575L343.837 523.357Z" fill="#F9DBBD" stroke="black" stroke-width="2"/>
<path id="Vector 7" d="M638.344 519.451C654.89 507.246 674.523 467.259 620.696 404.943L579.847 452.198C587.191 459.559 604.299 477.976 600.436 480.119C595.608 482.799 555.853 560.577 545.009 553.86L529.544 554.783C529.544 554.783 525.428 554.899 514.535 558.274C503.642 561.648 510.903 564.649 508.575 568.734C504.818 572.711 505.47 569.14 498.552 579.605C493.498 587.248 517.656 613.923 519.963 617.411C525.884 626.365 552.495 611.644 556.983 605.846C560.574 601.208 564.443 584.972 567.578 578.96L638.344 519.451Z" fill="#F9DBBD" stroke="black" stroke-width="2"/>
</g>
<g id="chestBase" filter="url(#filter0_d_1_379)">
<path d="M526.662 260.075C547.806 263.953 589.68 295.408 628.936 399.034C632.797 409.228 630.502 420.742 623.252 428.883L540.367 521.947C529.579 534.06 511.117 535.404 498.688 524.982L347.473 398.182C336.684 389.135 333.613 373.798 340.364 361.441C362.809 320.355 397.212 262.107 414 250.692C432.757 237.937 486.402 249.399 515.545 258.022C519.16 259.092 522.954 259.395 526.662 260.075Z" fill="#852F81"/>
<path d="M526.662 260.075C547.806 263.953 589.68 295.408 628.936 399.034C632.797 409.228 630.502 420.742 623.252 428.883L540.367 521.947C529.579 534.06 511.117 535.404 498.688 524.982L347.473 398.182C336.684 389.135 333.613 373.798 340.364 361.441C362.809 320.355 397.212 262.107 414 250.692C432.757 237.937 486.402 249.399 515.545 258.022C519.16 259.092 522.954 259.395 526.662 260.075Z" stroke="black" stroke-width="3"/>
</g>
<g id="skin">
<path id="neck" d="M511.304 306.156L509.843 306.446C491.261 310.139 443.974 278.907 441.999 260.064C440.777 248.408 446.444 221.689 458.14 222.44C495.641 224.849 540.385 230.843 525.611 242.499C516.559 249.64 518.201 260.576 523.927 271.341C530.884 284.422 525.836 303.268 511.304 306.156Z" fill="#F9DBBD" stroke="black" stroke-width="3"/>
<g id="face" filter="url(#filter1_d_1_379)">
<path d="M514.51 263.325C538.781 241.697 566.95 194.67 558.846 114.322C552.11 36.1193 444.444 9.43517 391.682 96.8545C353.86 159.519 426.3 228.641 479.784 264.096C490.644 271.296 504.782 271.993 514.51 263.325Z" fill="#F9DBBD"/>
<path d="M514.51 263.325C538.781 241.697 566.95 194.67 558.846 114.322C552.11 36.1193 444.444 9.43517 391.682 96.8545C353.86 159.519 426.3 228.641 479.784 264.096C490.644 271.296 504.782 271.993 514.51 263.325Z" stroke="black" stroke-width="3"/>
</g>
</g>
<path id="hairFront" d="M375 151C371.752 143.152 378.002 83.577 420.728 60.5298C428.734 56.2109 435.786 49.7417 442.171 43.2621C448.558 36.7816 457.33 31.455 465.423 31.7047C474.07 31.9715 482.263 37.5027 490.915 37.5027H496.874H508.995C513.889 37.5027 518.709 38.6999 523.034 40.99L538.924 49.4042C545.368 52.8161 553.238 52.4308 560.084 54.9394C579.544 62.0701 576.066 107.873 584.51 135.898C594.297 168.377 572.499 200.857 566.271 191.304C560.043 181.751 559.598 150.705 536.466 141.152C513.334 131.599 463.065 64.1097 464.4 77.4837C465.735 90.8578 435.484 169.191 429.256 180.655C423.028 192.118 436.374 233.815 399.896 217.097C375.997 206.145 378.559 159.598 375 151Z" fill="#874100" stroke="#874100"/>
<path id="hairOutline" d="M421 222C430 209.5 427 195 428.5 189.5L429.28 185.341C429.758 182.791 430.565 180.314 431.68 177.972L435 171L447.5 138.5L459 106L463.5 90L465.426 78.0596C465.631 76.7897 467.287 76.4298 468 77.5V77.5L469.506 79.3825C471.161 81.4509 473.093 83.2809 475.249 84.8206V84.8206C477.734 86.5956 479.92 88.7549 481.726 91.2175L482.961 92.9015C483.985 94.2979 485.128 95.603 486.377 96.8022L497 107L507 118.5L519 129.5L523.448 133.686C526.127 136.207 529.246 138.214 532.65 139.607L535.952 140.958C537.647 141.651 539.275 142.498 540.816 143.489L541.554 143.963C544.168 145.644 546.503 147.725 548.471 150.131V150.131C549.489 151.375 550.404 152.7 551.207 154.092L554.988 160.645C556.651 163.528 557.823 166.668 558.455 169.936L560.5 180.5" stroke="black" stroke-width="2"/>
</g>
<g id="keyboard" filter="url(#filter2_d_1_379)">
<path d="M316 699.5V665L704 606L882.5 645V680.5L414.5 739.5L316 699.5Z" fill="#939191"/>
<path d="M413 705.942L877.145 646L881.5 679.72L417.355 739.662L413 705.942Z" fill="#524C4C"/>
</g>
<g id="computer">
<g id="computerScreen" style="mix-blend-mode:plus-darker">
<rect x="413.604" y="364.292" width="494.533" height="327.266" rx="38.5" transform="rotate(-4.13836 413.604 364.292)" fill="#A5A5A5"/>
<rect x="413.604" y="364.292" width="494.533" height="327.266" rx="38.5" transform="rotate(-4.13836 413.604 364.292)" stroke="black" stroke-width="3"/>
</g>
<g id="screenBase" filter="url(#filter3_d_1_379)">
<path id="screenBaseDepth" d="M700.929 752.223L701.041 752.232L701.152 752.216C747.517 745.575 790.133 749.488 821.131 757.459C836.635 761.445 849.193 766.437 857.85 771.604C862.18 774.188 867.785 773.278 870.008 775.793C872.239 778.317 871.008 784.18 871.008 786.266C871.008 788.339 869.987 790.465 867.822 792.633C865.653 794.804 862.403 796.945 858.129 799.015C849.586 803.152 837.158 806.906 821.72 810.068C790.86 816.389 748.181 820.306 701.008 820.306C653.835 820.306 611.156 816.389 580.296 810.068C564.858 806.906 552.431 803.152 543.887 799.015C539.613 796.945 536.363 794.804 534.195 792.633C532.029 790.465 531.008 788.339 531.008 786.266C531.008 784.18 530.341 777.157 532.508 774.793C534.674 772.432 539.606 774.807 543.857 772.452C552.356 767.745 564.727 763.304 580.115 759.684C610.879 752.446 653.524 748.531 700.929 752.223Z" fill="#9A9A9A" stroke="black" stroke-width="2"/>
<g id="screenBase_2" filter="url(#filter4_d_1_379)">
<path d="M872.008 778.793C872.008 798.399 795.449 814.293 701.008 814.293C606.568 814.293 530.008 798.399 530.008 778.793C530.008 759.187 606.008 735.793 701.008 743.293C794.008 729.793 872.008 759.187 872.008 778.793Z" fill="#B4B4B4"/>
<path d="M700.93 744.29L701.041 744.299L701.152 744.283C747.518 737.552 790.133 741.517 821.131 749.596C836.635 753.637 849.193 758.696 857.85 763.932C862.181 766.551 865.498 769.193 867.721 771.742C869.952 774.3 871.008 776.678 871.008 778.793C871.008 780.894 869.987 783.049 867.822 785.246C865.653 787.446 862.403 789.616 858.13 791.714C849.586 795.907 837.159 799.711 821.72 802.916C790.86 809.323 748.182 813.293 701.008 813.293C653.835 813.293 611.156 809.323 580.296 802.916C564.858 799.711 552.431 795.907 543.887 791.714C539.613 789.616 536.363 787.446 534.195 785.246C532.029 783.049 531.008 780.894 531.008 778.793C531.008 776.678 532.033 774.397 534.201 772.002C536.366 769.609 539.606 767.179 543.857 764.792C552.356 760.021 564.727 755.52 580.115 751.851C610.879 744.516 653.524 740.547 700.93 744.29Z" stroke="black" stroke-width="2"/>
</g>
</g>
<g id="screenNeck" filter="url(#filter5_d_1_379)">
<path d="M646.137 646.473C643.981 617.737 665.528 592.695 694.263 590.539C722.861 588.394 747.83 609.731 750.169 638.313L752.863 671.228L750.949 713.132C750.657 719.532 751.392 725.936 753.125 732.103L759.246 753.881C759.602 755.15 759.783 756.461 759.783 757.779C759.783 765.316 753.972 771.579 746.456 772.143L657.783 778.796C656.646 778.881 655.503 778.882 654.366 778.797C640.287 777.746 630.501 764.333 633.799 750.606L646.96 695.818C648.414 689.765 648.917 683.523 648.451 677.315L646.137 646.473Z" fill="#B4B4B4"/>
<path d="M647.633 646.36C645.539 618.451 666.466 594.129 694.375 592.035C722.151 589.951 746.402 610.675 748.674 638.436L751.36 671.255L749.451 713.064C749.151 719.623 749.904 726.188 751.681 732.509L757.802 754.287C758.121 755.424 758.283 756.598 758.283 757.779C758.283 764.531 753.077 770.142 746.344 770.648L657.671 777.3C656.608 777.38 655.54 777.38 654.477 777.301C641.321 776.319 632.176 763.785 635.257 750.956L648.418 696.169C649.909 689.964 650.424 683.566 649.947 677.203L647.633 646.36Z" stroke="black" stroke-width="3"/>
</g>
<g id="mouse">
<g id="Ellipse 1" filter="url(#filter6_d_1_379)">
<ellipse cx="294" cy="799.5" rx="80" ry="50.5" transform="rotate(53.3319 294 799.5)" fill="#B5B5B5"/>
<path d="M340.58 862.064C330.139 869.838 315.458 870.342 299.858 864.332C284.287 858.333 268.1 845.927 255.098 828.463C242.095 810.999 234.852 791.935 233.57 775.297C232.286 758.629 236.98 744.709 247.42 736.936C257.861 729.162 272.542 728.658 288.142 734.668C303.713 740.667 319.9 753.073 332.902 770.537C345.905 788.001 353.148 807.065 354.43 823.703C355.714 840.371 351.021 854.291 340.58 862.064Z" stroke="black" stroke-opacity="0.19" stroke-width="4"/>
</g>
<path id="Vector 8" d="M318 793C345 834 326.5 865.5 318 867.5" stroke="#524C4C" stroke-opacity="0.42" stroke-width="5"/>
<path id="Vector 9" d="M316.5 866C368.5 966.8 471.5 944 516 919.5C605.167 881.833 781 820.8 771 878C758.5 949.5 811.5 938 898.5 919.5" stroke="#666666" stroke-width="5"/>
</g>
</g>
</g>
<defs>
<filter id="filter0_d_1_379" x="331.293" y="243.5" width="304.999" height="297.995" filterUnits="userSpaceOnUse" color-interpolation-filters="sRGB">
<feFlood flood-opacity="0" result="BackgroundImageFix"/>
<feColorMatrix in="SourceAlpha" type="matrix" values="0 0 0 0 0 0 0 0 0 0 0 0 0 0 0 0 0 0 127 0" result="hardAlpha"/>
<feOffset dy="4"/>
<feGaussianBlur stdDeviation="2"/>
<feComposite in2="hardAlpha" operator="out"/>
<feColorMatrix type="matrix" values="0 0 0 0 0 0 0 0 0 0 0 0 0 0 0 0 0 0 0.25 0"/>
<feBlend mode="normal" in2="BackgroundImageFix" result="effect1_dropShadow_1_379"/>
<feBlend mode="normal" in="SourceGraphic" in2="effect1_dropShadow_1_379" result="shape"/>
</filter>
<filter id="filter1_d_1_379" x="375.673" y="40.894" width="190.093" height="252.267" filterUnits="userSpaceOnUse" color-interpolation-filters="sRGB">
<feFlood flood-opacity="0" result="BackgroundImageFix"/>
<feColorMatrix in="SourceAlpha" type="matrix" values="0 0 0 0 0 0 0 0 0 0 0 0 0 0 0 0 0 0 127 0" result="hardAlpha"/>
<feOffset dy="18"/>
<feGaussianBlur stdDeviation="2"/>
<feComposite in2="hardAlpha" operator="out"/>
<feColorMatrix type="matrix" values="0 0 0 0 0 0 0 0 0 0 0 0 0 0 0 0 0 0 0.25 0"/>
<feBlend mode="normal" in2="BackgroundImageFix" result="effect1_dropShadow_1_379"/>
<feBlend mode="normal" in="SourceGraphic" in2="effect1_dropShadow_1_379" result="shape"/>
</filter>
<filter id="filter2_d_1_379" x="312" y="606" width="574.5" height="141.662" filterUnits="userSpaceOnUse" color-interpolation-filters="sRGB">
<feFlood flood-opacity="0" result="BackgroundImageFix"/>
<feColorMatrix in="SourceAlpha" type="matrix" values="0 0 0 0 0 0 0 0 0 0 0 0 0 0 0 0 0 0 127 0" result="hardAlpha"/>
<feOffset dy="4"/>
<feGaussianBlur stdDeviation="2"/>
<feComposite in2="hardAlpha" operator="out"/>
<feColorMatrix type="matrix" values="0 0 0 0 0 0 0 0 0 0 0 0 0 0 0 0 0 0 0.25 0"/>
<feBlend mode="normal" in2="BackgroundImageFix" result="effect1_dropShadow_1_379"/>
<feBlend mode="normal" in="SourceGraphic" in2="effect1_dropShadow_1_379" result="shape"/>
</filter>
<filter id="filter3_d_1_379" x="525.912" y="739.864" width="350.435" height="91.4425" filterUnits="userSpaceOnUse" color-interpolation-filters="sRGB">
<feFlood flood-opacity="0" result="BackgroundImageFix"/>
<feColorMatrix in="SourceAlpha" type="matrix" values="0 0 0 0 0 0 0 0 0 0 0 0 0 0 0 0 0 0 127 0" result="hardAlpha"/>
<feOffset dy="6"/>
<feGaussianBlur stdDeviation="2"/>
<feComposite in2="hardAlpha" operator="out"/>
<feColorMatrix type="matrix" values="0 0 0 0 0 0 0 0 0 0 0 0 0 0 0 0 0 0 0.25 0"/>
<feBlend mode="normal" in2="BackgroundImageFix" result="effect1_dropShadow_1_379"/>
<feBlend mode="normal" in="SourceGraphic" in2="effect1_dropShadow_1_379" result="shape"/>
</filter>
<filter id="filter4_d_1_379" x="528.008" y="739.864" width="350" height="82.4292" filterUnits="userSpaceOnUse" color-interpolation-filters="sRGB">
<feFlood flood-opacity="0" result="BackgroundImageFix"/>
<feColorMatrix in="SourceAlpha" type="matrix" values="0 0 0 0 0 0 0 0 0 0 0 0 0 0 0 0 0 0 127 0" result="hardAlpha"/>
<feOffset dx="2" dy="4"/>
<feGaussianBlur stdDeviation="2"/>
<feComposite in2="hardAlpha" operator="out"/>
<feColorMatrix type="matrix" values="0 0 0 0 0 0 0 0 0 0 0 0 0 0 0 0 0 0 0.25 0"/>
<feBlend mode="normal" in2="BackgroundImageFix" result="effect1_dropShadow_1_379"/>
<feBlend mode="normal" in="SourceGraphic" in2="effect1_dropShadow_1_379" result="shape"/>
</filter>
<filter id="filter5_d_1_379" x="633.157" y="590.391" width="146.626" height="218.47" filterUnits="userSpaceOnUse" color-interpolation-filters="sRGB">
<feFlood flood-opacity="0" result="BackgroundImageFix"/>
<feColorMatrix in="SourceAlpha" type="matrix" values="0 0 0 0 0 0 0 0 0 0 0 0 0 0 0 0 0 0 127 0" result="hardAlpha"/>
<feOffset dx="10" dy="20"/>
<feGaussianBlur stdDeviation="5"/>
<feComposite in2="hardAlpha" operator="out"/>
<feColorMatrix type="matrix" values="0 0 0 0 0 0 0 0 0 0 0 0 0 0 0 0 0 0 0.25 0"/>
<feBlend mode="normal" in2="BackgroundImageFix" result="effect1_dropShadow_1_379"/>
<feBlend mode="normal" in="SourceGraphic" in2="effect1_dropShadow_1_379" result="shape"/>
</filter>
<filter id="filter6_d_1_379" x="227.364" y="728.581" width="133.273" height="151.838" filterUnits="userSpaceOnUse" color-interpolation-filters="sRGB">
<feFlood flood-opacity="0" result="BackgroundImageFix"/>
<feColorMatrix in="SourceAlpha" type="matrix" values="0 0 0 0 0 0 0 0 0 0 0 0 0 0 0 0 0 0 127 0" result="hardAlpha"/>
<feOffset dy="6"/>
<feGaussianBlur stdDeviation="2"/>
<feComposite in2="hardAlpha" operator="out"/>
<feColorMatrix type="matrix" values="0 0 0 0 0 0 0 0 0 0 0 0 0 0 0 0 0 0 0.25 0"/>
<feBlend mode="normal" in2="BackgroundImageFix" result="effect1_dropShadow_1_379"/>
<feBlend mode="normal" in="SourceGraphic" in2="effect1_dropShadow_1_379" result="shape"/>
</filter>
</defs>
</svg>
