<svg width="1295" height="1020" viewBox="0 0 1295 1020" fill="none" xmlns="http://www.w3.org/2000/svg">
<g id="homeImage">
<g id="background">
<mask id="path-1-inside-1_1_379" fill="white">
<path d="M1270.95 498.549C1270.95 541.267 1261.82 582.535 1244.82 621.5C1166.97 799.884 924.066 930 636.475 930C286.064 930 2 736.833 2 498.549C2 260.264 286.064 67.097 636.475 67.097C655.361 66.8279 674.047 67.1206 692.5 67.9526C716.416 69.0309 739.939 71.0152 763 73.8569C1039.01 107.869 1248.64 264.701 1269.32 461C1270.62 473.366 1271.18 485.89 1270.95 498.549Z"/>
<path d="M1270.95 498.549C1270.95 541.267 1261.82 582.535 1244.82 621.5C1166.97 799.884 924.066 930 636.475 930C286.064 930 2 736.833 2 498.549C2 260.264 286.064 67.097 636.475 67.097C655.361 66.8279 674.047 67.1206 692.5 67.9526C716.416 69.0309 739.939 71.0152 763 73.8569C1039.01 107.869 1248.64 264.701 1269.32 461C1270.62 473.366 1271.18 485.89 1270.95 498.549Z"/>
<path d="M1270.95 498.549C1270.95 541.267 1261.82 582.535 1244.82 621.5C1166.97 799.884 924.066 930 636.475 930C286.064 930 2 736.833 2 498.549C2 260.264 286.064 67.097 636.475 67.097C655.361 66.8279 674.047 67.1206 692.5 67.9526C716.416 69.0309 739.939 71.0152 763 73.8569C1039.01 107.869 1248.64 264.701 1269.32 461C1270.62 473.366 1271.18 485.89 1270.95 498.549Z"/>
<path d="M1270.95 498.549C1270.95 541.267 1261.82 582.535 1244.82 621.5C1166.97 799.884 924.066 930 636.475 930C286.064 930 2 736.833 2 498.549C2 260.264 286.064 67.097 636.475 67.097C655.361 66.8279 674.047 67.1206 692.5 67.9526C716.416 69.0309 739.939 71.0152 763 73.8569C1039.01 107.869 1248.64 264.701 1269.32 461C1270.62 473.366 1271.18 485.89 1270.95 498.549Z"/>
</mask>
<path d="M1270.95 498.549C1270.95 541.267 1261.82 582.535 1244.82 621.5C1166.97 799.884 924.066 930 636.475 930C286.064 930 2 736.833 2 498.549C2 260.264 286.064 67.097 636.475 67.097C655.361 66.8279 674.047 67.1206 692.5 67.9526C716.416 69.0309 739.939 71.0152 763 73.8569C1039.01 107.869 1248.64 264.701 1269.32 461C1270.62 473.366 1271.18 485.89 1270.95 498.549Z" fill="#9995DB"/>
<path d="M1270.95 498.549C1270.95 541.267 1261.82 582.535 1244.82 621.5C1166.97 799.884 924.066 930 636.475 930C286.064 930 2 736.833 2 498.549C2 260.264 286.064 67.097 636.475 67.097C655.361 66.8279 674.047 67.1206 692.5 67.9526C716.416 69.0309 739.939 71.0152 763 73.8569C1039.01 107.869 1248.64 264.701 1269.32 461C1270.62 473.366 1271.18 485.89 1270.95 498.549Z" fill="#9995DB"/>
<path d="M1270.95 498.549C1270.95 541.267 1261.82 582.535 1244.82 621.5C1166.97 799.884 924.066 930 636.475 930C286.064 930 2 736.833 2 498.549C2 260.264 286.064 67.097 636.475 67.097C655.361 66.8279 674.047 67.1206 692.5 67.9526C716.416 69.0309 739.939 71.0152 763 73.8569C1039.01 107.869 1248.64 264.701 1269.32 461C1270.62 473.366 1271.18 485.89 1270.95 498.549Z" fill="#9995DB"/>
<path d="M1270.95 498.549C1270.95 541.267 1261.82 582.535 1244.82 621.5C1166.97 799.884 924.066 930 636.475 930C286.064 930 2 736.833 2 498.549C2 260.264 286.064 67.097 636.475 67.097C655.361 66.8279 674.047 67.1206 692.5 67.9526C716.416 69.0309 739.939 71.0152 763 73.8569C1039.01 107.869 1248.64 264.701 1269.32 461C1270.62 473.366 1271.18 485.89 1270.95 498.549Z" fill="#9995DB"/>
<path d="M763 73.8569L763.734 67.902L763 73.8569ZM1269.32 461L1263.36 461.629L1269.32 461ZM636.475 924C462.313 924 304.905 875.985 191.207 798.669C77.4777 721.332 8 615.116 8 498.549H-4C-4 620.266 68.5544 729.775 184.46 808.592C300.396 887.431 460.226 936 636.475 936V924ZM8 498.549C8 381.981 77.4777 275.765 191.207 198.428C304.905 121.112 462.313 73.097 636.475 73.097V61.097C460.226 61.097 300.396 109.666 184.46 188.505C68.5544 267.322 -4 376.832 -4 498.549H8ZM633.101 72.0585C756.99 156.305 853.664 222.044 950.339 287.784C1047.01 353.524 1143.69 419.264 1267.58 503.51L1274.32 493.587C1150.44 409.341 1053.76 343.601 957.086 277.861C860.412 212.121 763.738 146.382 639.849 62.1354L633.101 72.0585ZM762.266 79.8119C1037.09 113.678 1243.11 269.436 1263.36 461.629L1275.29 460.371C1254.18 259.965 1040.92 102.059 763.734 67.902L762.266 79.8119ZM1263.36 461.629C1264.63 473.751 1265.17 486.028 1264.95 498.441L1276.95 498.656C1277.18 485.751 1276.62 472.982 1275.29 460.371L1263.36 461.629ZM636.56 73.0964C655.329 72.829 673.896 73.1198 692.23 73.9465L692.77 61.9587C674.199 61.1213 655.394 60.8268 636.39 61.0976L636.56 73.0964ZM692.23 73.9465C715.991 75.0179 739.361 76.9893 762.266 79.8119L763.734 67.902C740.518 65.0412 716.84 63.0439 692.77 61.9587L692.23 73.9465ZM1264.95 498.549C1264.95 540.394 1256.01 580.848 1239.32 619.1L1250.31 623.9C1267.63 584.222 1276.95 542.139 1276.95 498.549H1264.95ZM1239.32 619.1C1162.79 794.461 922.751 924 636.475 924V936C925.382 936 1171.15 805.307 1250.31 623.9L1239.32 619.1ZM688.253 72.1905L1240.57 625.738L1249.06 617.262L696.747 63.7147L688.253 72.1905Z" fill="#343434" mask="url(#path-1-inside-1_1_379)"/>
</g>
<g id="person">
<path id="hairBack" d="M404.5 66.4301C361.494 143.323 404.5 148.5 351.163 313.428L348.869 323.619C346.335 334.881 350.487 346.599 359.548 353.752L378.353 368.599C384.373 373.352 391.985 375.618 399.624 374.932L603.63 356.625C611.443 355.924 618.645 352.107 623.612 346.035C630.853 337.182 632.255 324.916 627.2 314.657L620.423 300.905C617.458 294.888 616.595 288.049 617.973 281.483L621.923 262.658L624.728 236.194L628 170.785L625.018 133.016C624.825 130.576 624.35 128.167 623.514 125.867C589.677 32.8585 458.655 -30.3982 404.5 66.4301Z" fill="#874100"/>
<path id="chestLower" d="M499.294 338.5L688.087 628L619 672.5L507.5 681L401.5 665.5L310.5 628C310.5 628 363.736 577.933 395 542.5C432.5 500 499.294 338.5 499.294 338.5Z" fill="#852F81"/>
<g id="arms">
<path id="arm-left" d="M354.837 539.357C334.486 529.163 305.418 489.018 351.952 410L405.5 454C398.93 463.526 383.872 487.113 388.487 488.717C394.256 490.723 452.5 568.5 463 559L480 557C480 557 484.5 556.326 497 557.913C509.5 559.5 502.181 564.215 505.5 568.253C510.354 571.894 508.956 568.095 518.5 578.253C525.471 585.673 504.337 619.715 502.5 624C497.786 635 466 624 460 618.5C455.2 614.1 447.86 597 443.29 591L354.837 539.357Z" fill="#F9DBBD"/>
<path id="arm-right" d="M649.344 535.451C665.89 523.246 685.523 483.259 631.696 420.943L590.847 468.198C598.191 475.559 615.299 493.976 611.436 496.119C606.608 498.799 566.853 576.577 556.009 569.86L540.544 570.783C540.544 570.783 536.428 570.899 525.535 574.274C514.642 577.648 521.903 580.649 519.575 584.734C515.818 588.711 516.47 585.14 509.552 595.605C504.498 603.248 528.656 629.923 530.963 633.411C536.884 642.365 563.495 627.644 567.983 621.846C571.574 617.208 575.443 600.972 578.578 594.96L649.344 535.451Z" fill="#F9DBBD"/>
</g>
<g id="chestBase" filter="url(#filter0_d_1_379)">
<path d="M537.662 276.075C558.806 279.953 600.68 311.408 639.936 415.034C643.797 425.228 641.502 436.742 634.252 444.883L551.367 537.947C540.579 550.06 522.117 551.404 509.688 540.982L358.473 414.182C347.684 405.135 344.613 389.798 351.364 377.441C373.809 336.355 408.212 278.107 425 266.692C443.757 253.937 497.402 265.399 526.545 274.022C530.16 275.092 533.954 275.395 537.662 276.075Z" fill="#852F81"/>
</g>
<g id="skin">
<path id="neck" d="M523.435 321.255L521.975 321.545C503.392 325.238 456.105 294.006 454.13 275.163C452.908 263.507 458.575 236.788 470.271 237.539C507.772 239.948 552.517 245.942 537.743 257.598C528.691 264.739 530.333 275.675 536.058 286.44C543.016 299.522 537.968 318.367 523.435 321.255Z" fill="#F9DBBD"/>
<g id="face" filter="url(#filter1_d_1_379)">
<path d="M526.641 278.424C550.912 256.796 579.081 209.769 570.977 129.421C564.241 51.2185 456.575 24.5344 403.813 111.954C365.992 174.618 438.432 243.74 491.915 279.196C502.775 286.395 516.913 287.092 526.641 278.424Z" fill="#F9DBBD"/>
</g>
</g>
<path id="hairFront" d="M386 167C382.752 159.152 389.002 99.577 431.728 76.5298C439.734 72.2109 446.786 65.7417 453.171 59.2621C459.558 52.7816 468.33 47.455 476.423 47.7047C485.07 47.9715 493.263 53.5027 501.915 53.5027H507.874H519.995C524.889 53.5027 529.709 54.6999 534.034 56.99L549.924 65.4042C556.368 68.8161 564.238 68.4308 571.084 70.9394C590.544 78.0701 587.066 123.873 595.51 151.898C605.297 184.377 583.499 216.857 577.271 207.304C571.043 197.751 570.598 166.705 547.466 157.152C524.334 147.599 474.065 80.1097 475.4 93.4837C476.735 106.858 446.484 185.191 440.256 196.655C434.028 208.118 447.374 249.815 410.896 233.097C386.997 222.145 389.559 175.598 386 167Z" fill="#874100" stroke="#874100"/>
</g>
<g id="keyboard" style="mix-blend-mode:plus-lighter" filter="url(#filter2_d_1_379)">
<path d="M315 693.5V659L703 600L881.5 639V674.5L413.5 733.5L315 693.5Z" fill="#FEDEDE"/>
<path d="M430 705.446L881.5 639V674.5L413.5 733.5L430 705.446Z" fill="#524C4C"/>
</g>
<g id="computer">
<g id="screen" filter="url(#filter3_bd_1_379)">
<path d="M470.236 431.25C468.07 406.492 486.385 384.665 511.143 382.499L906.323 347.926C931.081 345.76 952.908 364.074 955.074 388.832L977.473 644.854C979.639 669.613 961.324 691.439 936.566 693.605L541.386 728.179C516.628 730.345 494.802 712.03 492.635 687.272L470.236 431.25Z" fill="#5B39AC" fill-opacity="0.8" shape-rendering="crispEdges"/>
<path d="M507.922 451.501C505.756 426.743 524.071 404.917 548.829 402.75L878.339 373.922C903.098 371.756 924.924 390.071 927.09 414.829L945.393 624.03C947.559 648.788 929.244 670.614 904.486 672.78L574.975 701.609C550.217 703.775 528.391 685.46 526.225 660.702L507.922 451.501Z" fill="#5B39AC" fill-opacity="0.8" shape-rendering="crispEdges"/>
</g>
<g id="monitorBase">
<g id="monitorBaseTop" style="mix-blend-mode:multiply">
<path d="M935.033 803C935.735 804 935.695 804.5 935.927 805.5C946.278 850.04 641.77 855.714 599.134 816.5C592.067 810 594.5 805 596 802C601.5 795.5 607.533 792 619.233 785.692C700.63 746.093 896.146 747.576 935.033 803Z" fill="#5B39AC" fill-opacity="0.85"/>
</g>
<g id="monitorBaseDepth" style="mix-blend-mode:multiply">
<path d="M935.579 803C936.322 803.97 936.877 807.481 937 808.5C943.467 862 645.931 866.5 598.785 823.138C591.718 816.638 594 806.5 595.5 803.5C602.5 789.5 625.8 783.807 637.5 777.5C735 745.5 896.5 752 935.579 803Z" fill="#5B39AC" fill-opacity="0.85"/>
</g>
</g>
<g id="screenNeck" filter="url(#filter4_d_1_379)">
<path d="M810.834 786.105C810.434 782.105 805.5 769.5 804.5 758C804.5 758.779 803.5 749.261 803.5 741.5V698.5L799.834 648.105C799.5 645.5 798.75 643.139 798 641C794.5 630 787.902 624.612 777 620C762.5 615 755.356 619.423 748.5 623C740.572 627.136 735.817 634.74 733.606 642C732.235 646.5 732.334 651 732.334 654.605L734.749 686C734.841 687.2 735.689 705 734.749 714C732.322 737.217 728.53 770.099 727.334 782.105C727.333 796 728 812.465 778 802.925C789.556 801.52 812.3 796.189 810.834 786.105Z" fill="#5722D7" fill-opacity="0.85" shape-rendering="crispEdges"/>
<path d="M810.834 786.105C810.434 782.105 805.5 769.5 804.5 758C804.5 758.779 803.5 749.261 803.5 741.5V698.5L799.834 648.105C799.5 645.5 798.75 643.139 798 641C794.5 630 787.902 624.612 777 620C762.5 615 755.356 619.423 748.5 623C740.572 627.136 735.817 634.74 733.606 642C732.235 646.5 732.334 651 732.334 654.605L734.749 686C734.841 687.2 735.689 705 734.749 714C732.322 737.217 728.53 770.099 727.334 782.105C727.333 796 728 812.465 778 802.925C789.556 801.52 812.3 796.189 810.834 786.105Z" stroke="#3F208A" stroke-opacity="0.21" stroke-width="2" shape-rendering="crispEdges"/>
</g>
<g id="mouse">
<g id="Ellipse 1" style="mix-blend-mode:color-dodge" filter="url(#filter5_d_1_379)">
<ellipse cx="373.281" cy="875.326" rx="80" ry="50.5" transform="rotate(53.3319 373.281 875.326)" fill="#B5B5B5"/>
<path d="M419.861 937.891C409.42 945.664 394.739 946.169 379.139 940.159C363.567 934.159 347.381 921.753 334.378 904.289C321.376 886.825 314.133 867.761 312.851 851.123C311.567 834.455 316.26 820.535 326.701 812.762C337.141 804.989 351.823 804.484 367.423 810.494C382.994 816.493 399.181 828.899 412.183 846.363C425.185 863.827 432.429 882.891 433.711 899.529C434.995 916.197 430.301 930.118 419.861 937.891Z" stroke="black" stroke-opacity="0.19" stroke-width="4"/>
</g>
<path id="Vector 8" d="M397.281 868.826C424.281 909.826 405.781 941.326 397.281 943.326" stroke="#524C4C" stroke-opacity="0.42" stroke-width="5"/>
<path id="Vector 9" d="M395.781 941.826C447.781 1042.63 550.781 1019.83 595.281 995.326C684.447 957.66 860.281 896.626 850.281 953.826C837.781 1025.33 890.781 1013.83 977.781 995.326" stroke="#666666" stroke-width="6"/>
</g>
</g>
</g>
<defs>
<filter id="filter0_d_1_379" x="343.793" y="261" width="301.998" height="294.995" filterUnits="userSpaceOnUse" color-interpolation-filters="sRGB">
<feFlood flood-opacity="0" result="BackgroundImageFix"/>
<feColorMatrix in="SourceAlpha" type="matrix" values="0 0 0 0 0 0 0 0 0 0 0 0 0 0 0 0 0 0 127 0" result="hardAlpha"/>
<feOffset dy="4"/>
<feGaussianBlur stdDeviation="2"/>
<feComposite in2="hardAlpha" operator="out"/>
<feColorMatrix type="matrix" values="0 0 0 0 0 0 0 0 0 0 0 0 0 0 0 0 0 0 0.25 0"/>
<feBlend mode="normal" in2="BackgroundImageFix" result="effect1_dropShadow_1_379"/>
<feBlend mode="normal" in="SourceGraphic" in2="effect1_dropShadow_1_379" result="shape"/>
</filter>
<filter id="filter1_d_1_379" x="389.307" y="57.4936" width="187.09" height="249.267" filterUnits="userSpaceOnUse" color-interpolation-filters="sRGB">
<feFlood flood-opacity="0" result="BackgroundImageFix"/>
<feColorMatrix in="SourceAlpha" type="matrix" values="0 0 0 0 0 0 0 0 0 0 0 0 0 0 0 0 0 0 127 0" result="hardAlpha"/>
<feOffset dy="18"/>
<feGaussianBlur stdDeviation="2"/>
<feComposite in2="hardAlpha" operator="out"/>
<feColorMatrix type="matrix" values="0 0 0 0 0 0 0 0 0 0 0 0 0 0 0 0 0 0 0.25 0"/>
<feBlend mode="normal" in2="BackgroundImageFix" result="effect1_dropShadow_1_379"/>
<feBlend mode="normal" in="SourceGraphic" in2="effect1_dropShadow_1_379" result="shape"/>
</filter>
<filter id="filter2_d_1_379" x="311" y="600" width="574.5" height="143.5" filterUnits="userSpaceOnUse" color-interpolation-filters="sRGB">
<feFlood flood-opacity="0" result="BackgroundImageFix"/>
<feColorMatrix in="SourceAlpha" type="matrix" values="0 0 0 0 0 0 0 0 0 0 0 0 0 0 0 0 0 0 127 0" result="hardAlpha"/>
<feOffset dy="6"/>
<feGaussianBlur stdDeviation="2"/>
<feComposite in2="hardAlpha" operator="out"/>
<feColorMatrix type="matrix" values="0 0 0 0 0 0 0 0 0 0 0 0 0 0 0 0 0 0 0.25 0"/>
<feBlend mode="normal" in2="BackgroundImageFix" result="effect1_dropShadow_1_379"/>
<feBlend mode="normal" in="SourceGraphic" in2="effect1_dropShadow_1_379" result="shape"/>
</filter>
<filter id="filter3_bd_1_379" x="437.063" y="314.752" width="573.584" height="446.601" filterUnits="userSpaceOnUse" color-interpolation-filters="sRGB">
<feFlood flood-opacity="0" result="BackgroundImageFix"/>
<feGaussianBlur in="BackgroundImageFix" stdDeviation="16.5"/>
<feComposite in2="SourceAlpha" operator="in" result="effect1_backgroundBlur_1_379"/>
<feColorMatrix in="SourceAlpha" type="matrix" values="0 0 0 0 0 0 0 0 0 0 0 0 0 0 0 0 0 0 127 0" result="hardAlpha"/>
<feOffset dy="4"/>
<feGaussianBlur stdDeviation="2"/>
<feComposite in2="hardAlpha" operator="out"/>
<feColorMatrix type="matrix" values="0 0 0 0 0 0 0 0 0 0 0 0 0 0 0 0 0 0 0.25 0"/>
<feBlend mode="normal" in2="effect1_backgroundBlur_1_379" result="effect2_dropShadow_1_379"/>
<feBlend mode="normal" in="SourceGraphic" in2="effect2_dropShadow_1_379" result="shape"/>
</filter>
<filter id="filter4_d_1_379" x="722.334" y="616.758" width="93.5681" height="214.002" filterUnits="userSpaceOnUse" color-interpolation-filters="sRGB">
<feFlood flood-opacity="0" result="BackgroundImageFix"/>
<feColorMatrix in="SourceAlpha" type="matrix" values="0 0 0 0 0 0 0 0 0 0 0 0 0 0 0 0 0 0 127 0" result="hardAlpha"/>
<feOffset dy="20"/>
<feGaussianBlur stdDeviation="2"/>
<feComposite in2="hardAlpha" operator="out"/>
<feColorMatrix type="matrix" values="0 0 0 0 0 0 0 0 0 0 0 0 0 0 0 0 0 0 0.25 0"/>
<feBlend mode="normal" in2="BackgroundImageFix" result="effect1_dropShadow_1_379"/>
<feBlend mode="normal" in="SourceGraphic" in2="effect1_dropShadow_1_379" result="shape"/>
</filter>
<filter id="filter5_d_1_379" x="306.644" y="804.407" width="133.273" height="151.838" filterUnits="userSpaceOnUse" color-interpolation-filters="sRGB">
<feFlood flood-opacity="0" result="BackgroundImageFix"/>
<feColorMatrix in="SourceAlpha" type="matrix" values="0 0 0 0 0 0 0 0 0 0 0 0 0 0 0 0 0 0 127 0" result="hardAlpha"/>
<feOffset dy="6"/>
<feGaussianBlur stdDeviation="2"/>
<feComposite in2="hardAlpha" operator="out"/>
<feColorMatrix type="matrix" values="0 0 0 0 0 0 0 0 0 0 0 0 0 0 0 0 0 0 0.25 0"/>
<feBlend mode="normal" in2="BackgroundImageFix" result="effect1_dropShadow_1_379"/>
<feBlend mode="normal" in="SourceGraphic" in2="effect1_dropShadow_1_379" result="shape"/>
</filter>
</defs>
</svg>
