<svg width="48" height="48" viewBox="0 0 48 48" fill="none" xmlns="http://www.w3.org/2000/svg">
<rect width="48" height="48" transform="matrix(-1 0 0 1 48 0)" fill="#3B3B3B"/>
<path d="M16 10H32C39.732 10 46 16.268 46 24C46 31.732 39.732 38 32 38H16C8.26801 38 2 31.732 2 24C2 16.268 8.26801 10 16 10Z" stroke="#9893DA" stroke-width="4" stroke-linecap="round" stroke-linejoin="round"/>
<path d="M16 30C12.6863 30 10 27.3137 10 24C10 20.6863 12.6863 18 16 18C19.3137 18 22 20.6863 22 24C22 27.3137 19.3137 30 16 30Z" stroke="#9893DA" stroke-width="4" stroke-linecap="round" stroke-linejoin="round"/>
</svg>
